<?xml version="1.0" encoding="UTF-8" standalone="no"?>
<!DOCTYPE svg PUBLIC "-//W3C//DTD SVG 1.1//EN" "http://www.w3.org/Graphics/SVG/1.1/DTD/svg11.dtd">
<svg version="1.1" xmlns="http://www.w3.org/2000/svg" xmlns:xlink="http://www.w3.org/1999/xlink" preserveAspectRatio="xMidYMid meet" viewBox="329.79581809906676 73.68788426163599 154.16311493165165 462.6376182778006" width="150.16" height="458.64"><defs><path d="M419.82 533.33C417.15 533.33 415.67 533.33 415.38 533.33C415.24 532.64 415.11 531.96 414.98 531.28C415.42 531.28 418.92 531.28 419.36 531.28C419.52 531.95 419.67 532.64 419.82 533.33" id="c2CbW4dXEC"></path><path d="M330.8 520.35L480.96 520.35L480.96 74.69L330.8 74.69L330.8 520.35Z" id="cs0VBPY4o"></path><path d="M365.87 533.33C363.16 533.33 361.65 533.33 361.35 533.33C360.81 532.63 360.27 531.95 359.73 531.28C360.17 531.28 363.69 531.28 364.13 531.28C364.71 531.95 365.29 532.63 365.87 533.33" id="a1zWJBbwKZ"></path><path d="M406.53 488.27C406.47 488.27 406.42 488.27 406.37 488.27C406.21 487.77 406.06 487.3 405.92 486.85C405.9 486.86 405.71 486.94 405.69 486.95C405.8 487.36 405.92 487.79 406.05 488.23C404.5 488 403.26 486.64 403.19 484.96C403.16 484.37 403.27 483.82 403.5 483.34C403.5 483.34 403.53 483.34 403.59 483.34L403.51 483.76L404.66 483.76L404.55 483.29L406.05 483.23L405.98 483.65L407.13 483.65L407.02 483.18L408.38 483.12L408.3 483.56L409.45 483.54L409.34 483.08C409.38 483.08 409.4 483.08 409.41 483.08C409.66 483.54 409.83 484.07 409.85 484.66C409.93 486.57 408.51 488.18 406.67 488.27C406.62 488.27 406.57 488.27 406.53 488.27" id="e5kjGL5og"></path><linearGradient id="gradientcgOaLcwsY" gradientUnits="userSpaceOnUse" x1="479.77" y1="435.83" x2="479.77" y2="518.9"><stop style="stop-color: #100f0d;stop-opacity: 1" offset="0%"></stop><stop style="stop-color: #c6b7a2;stop-opacity: 1" offset="100%"></stop></linearGradient><path d="M404.66 483.76L403.51 483.76L403.59 483.34L404.01 480.98L404.55 483.29L404.66 483.76" id="bqkFAvLEd"></path><linearGradient id="gradientbY82eKDHV" gradientUnits="userSpaceOnUse" x1="479.77" y1="435.83" x2="479.77" y2="518.9"><stop style="stop-color: #100f0d;stop-opacity: 1" offset="0%"></stop><stop style="stop-color: #c6b7a2;stop-opacity: 1" offset="100%"></stop></linearGradient><path d="M407.13 483.65L405.98 483.65L406.05 483.23L406.47 480.87L407.02 483.18L407.13 483.65" id="c3PfhtoM5n"></path><linearGradient id="gradientb1oUSTqXZ7" gradientUnits="userSpaceOnUse" x1="479.77" y1="435.83" x2="479.77" y2="518.9"><stop style="stop-color: #100f0d;stop-opacity: 1" offset="0%"></stop><stop style="stop-color: #c6b7a2;stop-opacity: 1" offset="100%"></stop></linearGradient><path d="M408.3 483.56L408.38 483.12L408.81 480.78L409.34 483.08L409.45 483.54L408.3 483.56" id="eyXQRRZKh"></path><linearGradient id="gradienta15P4vo3KF" gradientUnits="userSpaceOnUse" x1="479.77" y1="435.83" x2="479.77" y2="518.9"><stop style="stop-color: #100f0d;stop-opacity: 1" offset="0%"></stop><stop style="stop-color: #c6b7a2;stop-opacity: 1" offset="100%"></stop></linearGradient><path d="M409.25 500.46C408.03 495.54 406.92 491.38 406.05 488.23C405.92 487.79 405.8 487.36 405.69 486.95C405.71 486.94 405.9 486.86 405.92 486.85C406.06 487.3 406.21 487.77 406.37 488.27C407.4 491.47 408.68 495.6 410.12 500.43C409.84 500.44 409.54 500.45 409.25 500.46" id="d4Z3WcUDyd"></path><linearGradient id="gradienth14QA4ktEm" gradientUnits="userSpaceOnUse" x1="479.77" y1="435.83" x2="479.77" y2="518.9"><stop style="stop-color: #100f0d;stop-opacity: 1" offset="0%"></stop><stop style="stop-color: #c6b7a2;stop-opacity: 1" offset="100%"></stop></linearGradient><path d="M339.63 509.07C338.71 509.07 337.79 508.7 337.09 507.97C336.68 507.55 336.41 507.06 336.25 506.56C336.26 506.55 336.28 506.53 336.32 506.5L336.54 506.87L337.4 506.1L337.02 505.83L338.1 504.79L338.32 505.17L339.19 504.4L338.8 504.12L339.79 503.18L340.01 503.56L340.88 502.8L340.49 502.51C340.51 502.49 340.53 502.47 340.53 502.47C341.03 502.65 341.5 502.95 341.91 503.37C343.23 504.75 343.22 506.91 341.88 508.18C341.74 508.31 341.59 508.43 341.43 508.54C341.11 508.2 340.79 507.88 340.49 507.57C340.48 507.59 340.35 507.74 340.34 507.76C340.6 508.05 340.88 508.36 341.18 508.69C340.7 508.94 340.17 509.07 339.63 509.07" id="f5vvp1tBVJ"></path><linearGradient id="gradienta1Amxkx8XZ" gradientUnits="userSpaceOnUse" x1="479.77" y1="435.83" x2="479.77" y2="518.9"><stop style="stop-color: #100f0d;stop-opacity: 1" offset="0%"></stop><stop style="stop-color: #c6b7a2;stop-opacity: 1" offset="100%"></stop></linearGradient><path d="M336.54 506.87L336.32 506.5L335.09 504.44L337.02 505.83L337.4 506.1L336.54 506.87" id="aGrk4DxXL"></path><linearGradient id="gradientbnMFfaMwN" gradientUnits="userSpaceOnUse" x1="479.77" y1="435.83" x2="479.77" y2="518.9"><stop style="stop-color: #100f0d;stop-opacity: 1" offset="0%"></stop><stop style="stop-color: #c6b7a2;stop-opacity: 1" offset="100%"></stop></linearGradient><path d="M338.32 505.17L338.1 504.79L336.87 502.74L338.8 504.12L339.19 504.4L338.32 505.17" id="e4EpoquL6n"></path><linearGradient id="gradienth2Voe4BFa" gradientUnits="userSpaceOnUse" x1="479.77" y1="435.83" x2="479.77" y2="518.9"><stop style="stop-color: #100f0d;stop-opacity: 1" offset="0%"></stop><stop style="stop-color: #c6b7a2;stop-opacity: 1" offset="100%"></stop></linearGradient><path d="M340.01 503.56L339.79 503.18L338.55 501.13L340.49 502.51L340.88 502.8L340.01 503.56" id="d2m20UOsol"></path><linearGradient id="gradienta1AC3mhfQJ" gradientUnits="userSpaceOnUse" x1="479.77" y1="435.83" x2="479.77" y2="518.9"><stop style="stop-color: #100f0d;stop-opacity: 1" offset="0%"></stop><stop style="stop-color: #c6b7a2;stop-opacity: 1" offset="100%"></stop></linearGradient><path d="M350.95 519.96C347.05 515.31 343.67 511.47 341.18 508.69C340.88 508.36 340.6 508.05 340.34 507.76C340.35 507.74 340.48 507.59 340.49 507.57C340.79 507.88 341.11 508.2 341.43 508.54C344.08 511.26 347.56 514.9 351.58 519.24C351.35 519.5 351.12 519.76 350.95 519.96" id="c7bFCNl7K"></path><linearGradient id="gradientd1mfj1MZ7Q" gradientUnits="userSpaceOnUse" x1="479.77" y1="435.83" x2="479.77" y2="518.9"><stop style="stop-color: #100f0d;stop-opacity: 1" offset="0%"></stop><stop style="stop-color: #c6b7a2;stop-opacity: 1" offset="100%"></stop></linearGradient><path d="M419.36 531.28C416.73 531.28 415.27 531.28 414.98 531.28C412.69 519.68 410.06 508.99 407.96 500.53C408.08 500.5 408.63 500.48 409.25 500.46C409.54 500.45 409.84 500.44 410.12 500.43C410.68 500.41 411.16 500.39 411.28 500.37C413.83 508.86 416.71 519.54 419.36 531.28" id="d1xsZfo3Ix"></path><linearGradient id="gradientb4dwHUyl66" gradientUnits="userSpaceOnUse" x1="479.77" y1="435.83" x2="479.77" y2="518.9"><stop style="stop-color: #ffffff;stop-opacity: 1" offset="0%"></stop><stop style="stop-color: #c6b7a2;stop-opacity: 1" offset="100%"></stop></linearGradient><path d="M364.13 531.28C361.49 531.28 360.03 531.28 359.73 531.28C356.55 527.27 353.5 523.57 350.71 520.27C350.74 520.21 350.83 520.1 350.95 519.96C351.12 519.76 351.35 519.5 351.58 519.24C351.98 518.79 352.39 518.33 352.48 518.19C356.05 522.01 359.99 526.43 364.13 531.28" id="a2R3SLFWT"></path><linearGradient id="gradientbFupFq97z" gradientUnits="userSpaceOnUse" x1="479.77" y1="435.83" x2="479.77" y2="518.9"><stop style="stop-color: #ffffff;stop-opacity: 1" offset="0%"></stop><stop style="stop-color: #c6b7a2;stop-opacity: 1" offset="100%"></stop></linearGradient><path d="M384.5 315.91C379.44 311.05 371.12 292.28 368.62 274C365.15 255.68 369.74 238.84 370.03 239.04C370.11 239.1 370.91 234.85 374.44 229.16C377.89 223.63 385.92 217.25 395.73 217.73C405.31 218.13 414.55 224.93 416.94 233.33C419.66 242.2 412.71 248.71 409.45 249.33C397.31 252.98 389.5 241.66 393.78 233.58C394.5 231.77 395.77 230.08 397.91 228.94C400.7 227.46 404.38 228.01 405.95 229.76C407.63 231.23 408.15 232.59 408.19 232.57C408.15 232.58 409.01 233.73 409.35 235.99C410.5 238.26 406.43 242.96 402.99 239.62C402.77 239.41 402.58 239.15 402.41 238.88C402.24 238.72 402.13 238.53 402.12 238.29C401.98 237.9 401.88 237.47 401.88 236.99C401.85 235.61 403.35 234.79 404.29 234.87C406.39 234.59 407.3 237.05 406.52 238.53C407.28 238.1 407.78 237.18 407.4 236.21C407.15 234.53 406.46 233.49 406.48 233.5C406.7 233.85 403.93 228.01 398.77 230.7C393.97 233.03 394.76 240.23 395.53 241.56C396.69 244.75 398.55 245.72 401.14 247.58C403.38 248.27 405.99 248.33 408.78 247.5C411.46 246.99 417.37 241.56 415.04 233.87C413.02 226.45 404.39 220.03 395.65 219.68C386.72 219.25 379.29 225.08 376.08 230.25C372.8 235.51 371.96 239.66 371.9 239.6C371.63 239.4 367.16 255.64 370.57 273.69C373.03 291.74 381.24 310.13 386.01 314.67C393.59 323.76 401.61 326.12 411.29 322.78C402.25 327.45 392.43 325.65 384.5 315.91" id="g1ubuUADk4"></path><path d="M402.83 343.46C392.02 337.53 382.69 314.92 405.15 299.35C429.46 282.51 463.5 258.96 415.39 199.81C414.79 199.07 409.95 193.11 409.34 192.37C413.74 197.46 425.46 209.31 435.56 223.22C450 243.09 456.53 275.56 435.94 319.7C426.73 339.45 416.01 350.7 402.83 343.46" id="d4PLxImnNi"></path><path d="M472.56 115.04C472.09 114.79 471.55 114.63 470.97 114.61C469.06 114.53 467.45 115.95 467.37 117.79C467.29 119.62 468.78 121.18 470.69 121.27C471.27 121.29 471.83 121.18 472.3 120.96C472.32 120.56 472.41 118.59 472.56 115.04" id="e6gqkBgWhu"></path><path d="M472.03 116.18L474.86 115.77L472.13 115.03L472.03 116.18Z" id="a6hraqhka8"></path><path d="M471.94 118.64L474.75 118.23L472.02 117.49L471.94 118.64Z" id="aSymUfjHN"></path><path d="M471.84 120.97L474.66 120.56L471.92 119.82L471.84 120.97Z" id="c5Ax7gvhHK"></path><path d="M431.74 219.23C440.07 229.81 447.7 222.61 451.04 214.59C464.8 181.52 469.23 133.75 470.37 117.72C470.4 117.72 470.59 117.71 470.62 117.71C469.97 137.1 465.02 193.55 452 232.18C446.32 249.02 448.67 264.11 447.76 276.93C446.7 273.08 441.35 253.85 431.74 219.23" id="ae646lC5"></path><path d="M403.49 473.99C403.27 473.5 403.16 472.95 403.19 472.37C403.27 470.46 404.83 468.98 406.68 469.06C408.51 469.14 409.93 470.76 409.85 472.66C409.82 473.25 409.66 473.78 409.4 474.25C409.01 474.23 407.04 474.14 403.49 473.99" id="aPnubzgJ2"></path><path d="M404.66 473.57L404.01 476.34L403.51 473.56L404.66 473.57Z" id="b1px4d6v6J"></path><path d="M407.13 473.67L406.47 476.45L405.97 473.67L407.13 473.67Z" id="aCPeACpq3"></path><path d="M409.45 473.78L408.8 476.56L408.3 473.77L409.45 473.78Z" id="a18yVJ7Rh"></path><path d="M407.12 345.26C418.95 348.08 419.76 363.99 420.2 372.67C421.99 408.45 410.03 454.9 405.69 470.38C405.71 470.39 405.89 470.46 405.91 470.47C412.05 451.39 430.37 391.77 427.83 350.25C427.86 339.27 423.94 339.84 434.83 322.28C434.83 322.28 418.33 334.32 414.55 333.15C414.06 333.95 411.58 337.99 407.12 345.26" id="aTGiyVu3d"></path><path d="M336.25 450.77C336.4 450.26 336.68 449.77 337.08 449.35C338.41 447.97 340.55 447.88 341.89 449.15C343.22 450.42 343.22 452.57 341.9 453.95C341.5 454.38 341.03 454.67 340.53 454.85C340.24 454.58 338.82 453.22 336.25 450.77" id="a9frhx2HN9"></path><path d="M337.41 451.23L335.09 452.89L336.54 450.46L337.41 451.23Z" id="a17DpjjACh"></path><path d="M339.19 452.93L336.87 454.59L338.33 452.16L339.19 452.93Z" id="aJNjeGB6M"></path><path d="M340.88 454.54L338.56 456.2L340.02 453.77L340.88 454.54Z" id="b17C2ZWswz"></path><path d="M397.22 338.12C406.57 345.9 400.22 360.52 396.75 368.49C382.46 401.33 351.1 437.64 340.34 449.57C340.36 449.59 340.48 449.74 340.5 449.76C354.48 435.39 397.38 390.11 413.55 351.79C418.46 341.97 413.67 337.57 431.23 326.68C431.23 326.68 412.12 333.3 409.26 330.57C408.46 331.07 404.44 333.59 397.22 338.12" id="am3iAc7As"></path><path d="M434.93 322.3L434.74 322.44C434.79 322.32 434.83 322.25 434.83 322.24C424.74 315.45 415.92 305.93 407.72 297.52C406.82 298.14 405.93 298.76 405.05 299.36C384.29 313.65 390.49 333.84 400.07 341.67C404.77 349.78 399.6 361.61 396.59 368.5C385.66 393.42 364.85 420.31 350.71 437.06C350.89 437.34 352.31 438.86 352.48 439.15C371.26 419.01 400.43 382.56 413.51 351.8C413.84 351.14 414.12 350.52 414.37 349.91C419.35 356.03 419.88 366.3 420.21 372.68C421.63 400.9 413.2 435.74 407.96 456.8C408.24 456.85 410.99 456.9 411.27 456.96C419.07 430.98 430 384.48 427.89 350.25C427.92 341.54 425.44 340.1 429.9 331.11C431.38 328.77 432.84 326.19 434.25 323.41C434.47 323.04 434.7 322.68 434.93 322.31C434.93 322.31 434.93 322.3 434.93 322.3" id="b1AP3sXjK6"></path><path d="M426.76 194.94C428.41 193.89 429.9 193.87 432.17 194.04C434.71 194.31 446.84 197.14 446.85 197.19C446.83 197.19 449.9 198 452.92 199.75C454.37 200.67 455.95 201.71 456.69 203.15C457.5 204.57 457.2 206.07 456.77 206.6C456.03 207.8 454.59 207.38 453.97 206.76C453.67 206.46 453.45 205.8 454.02 205.53C454.61 205.27 454.98 205.68 455.15 205.97C454.22 205.19 453.78 205.92 454.1 206.42C454.46 207.01 455.63 207.6 456.43 206.48C457.71 204.69 455.69 201.25 452.42 199.83C449.47 198.12 446.72 197.6 446.72 197.59C446.77 197.55 434.57 194.72 432.13 194.46C429.88 194.3 428.52 194.15 426.76 194.94" id="aXLkklrN8"></path><path d="M426.18 198.79C427.15 198.12 428.05 198.06 429.44 198.12C430.98 198.22 438.41 199.64 438.42 199.67C438.41 199.68 440.29 200.09 442.16 201.08C443.06 201.61 444.04 202.2 444.53 203.06C445.05 203.9 444.9 204.81 444.66 205.14C444.24 205.89 443.35 205.67 442.97 205.31C442.78 205.14 442.62 204.74 442.97 204.56C443.31 204.4 443.54 204.63 443.66 204.8C443.08 204.35 442.92 204.81 443.12 205.1C443.35 205.45 444.05 205.42 444.37 204.82C444.98 203.64 443.72 202.15 441.75 201.25C439.87 200.39 438.18 199.98 438.19 199.96C438.22 199.93 430.91 198.47 429.43 198.38C428.05 198.32 427.23 198.27 426.18 198.79" id="a2pAM7BNns"></path><path d="M419.94 196.88C421.49 195.72 422.98 195.59 425.26 195.6C427.81 195.69 440.11 197.65 440.12 197.7C440.11 197.71 443.23 198.3 446.36 199.83C447.88 200.64 449.52 201.57 450.36 202.96C451.26 204.32 451.07 205.83 450.68 206.38C449.96 207.44 448.56 207.33 447.91 206.75C447.58 206.47 447.31 205.82 447.87 205.52C448.43 205.21 448.83 205.6 449.02 205.87C448.04 205.17 447.66 205.92 448.01 206.4C448.41 206.96 450.1 207.15 450.5 206.13C452.54 200.76 440.02 198.12 440.03 198.1C440.07 198.06 427.7 196.11 425.25 196.02C422.99 196.01 421.63 195.97 419.94 196.88" id="e2CBo4Jqbs"></path><path d="M408.5 195.71C407.04 194.42 405.57 194.16 403.3 193.98C400.76 193.85 388.33 194.74 388.32 194.78C388.33 194.79 385.17 195.11 381.92 196.37C380.34 197.04 378.62 197.83 377.66 199.14C376.64 200.41 376.7 201.93 377.04 202.53C377.58 203.83 379.07 203.65 379.77 203.13C380.12 202.88 380.44 202.25 379.92 201.9C379.39 201.56 378.96 201.9 378.74 202.15C379.77 201.54 380.09 202.33 379.71 202.77C379.26 203.29 378 203.69 377.39 202.47C376.4 200.5 378.94 197.41 382.4 196.53C385.58 195.3 388.39 195.21 388.38 195.2C388.33 195.15 400.83 194.27 403.28 194.4C405.52 194.59 406.89 194.66 408.5 195.71" id="b2bQhMSEl"></path><path d="M408.48 199.61C407.63 198.79 406.74 198.6 405.37 198.43C403.82 198.29 396.26 198.53 396.25 198.56C396.26 198.57 394.34 198.69 392.34 199.37C391.37 199.74 390.3 200.18 389.69 200.94C389.04 201.69 389.04 202.62 389.23 202.98C389.53 203.8 390.44 203.72 390.88 203.42C391.09 203.27 391.3 202.9 391 202.68C390.68 202.46 390.41 202.66 390.28 202.8C390.91 202.46 391 202.92 390.76 203.18C390.47 203.49 389.78 203.36 389.56 202.72C389.14 201.45 390.62 200.17 392.71 199.6C394.71 199.04 396.44 198.9 396.43 198.89C396.41 198.86 403.86 198.55 405.34 198.69C406.7 198.85 407.53 198.93 408.48 199.61" id="b77Fu5Smw"></path><path d="M414.95 198.69C413.59 197.31 412.13 196.94 409.88 196.6C407.36 196.29 394.9 196.29 394.87 196.35C394.88 196.36 391.71 196.45 388.38 197.48C386.77 198.04 384.99 198.7 383.94 199.93C382.83 201.13 382.79 202.66 383.09 203.27C383.64 204.42 385.03 204.53 385.77 204.06C386.13 203.83 386.51 203.23 386 202.85C385.49 202.46 385.04 202.78 384.81 203.02C385.88 202.47 386.14 203.28 385.73 203.7C385.24 204.19 383.54 204.12 383.31 203.04C382.12 197.43 394.91 196.78 394.9 196.76C394.87 196.71 407.4 196.71 409.83 197.02C412.06 197.36 413.42 197.53 414.95 198.69" id="ci3wwNh4"></path><path d="M400.86 192.85C400.71 199.35 408.21 204.79 417.61 205.01C427.02 205.23 434.76 200.14 434.92 193.65C435.07 187.15 427.56 181.7 418.16 181.48C408.76 181.27 401.02 186.35 400.86 192.85" id="f4SN9Om2x5"></path><path d="M420.36 184.43L435.41 172.84L431.21 192.2L420.36 184.43Z" id="b8eIi7X0EF"></path><path d="M417.79 200.08C417.79 200.08 416.89 198.74 416.9 198.4C416.91 198.07 419.22 198.45 419.22 198.45C419.13 198.56 418.65 199.1 417.79 200.08" id="e2Z4GuQh5F"></path><path d="M416.57 194.55C416.57 194.55 414.06 190.19 410.08 189.81C406.09 189.42 405.32 190.44 405.32 190.44C405.32 190.44 405.92 192.93 410.8 193.99C415.69 195.05 416.57 194.55 416.57 194.55" id="b1eK22MEz"></path><path d="M411.39 194.28C411.39 194.28 413.89 191.3 413.13 188.3C412.36 185.3 411.42 185 411.42 185C411.42 185 408.99 185.92 409.5 189.76C410.01 193.6 411.39 194.28 411.39 194.28" id="d17wIVvJpO"></path><path d="M409.95 190.33C409.95 190.33 409.9 191.02 410.22 191.8C410.54 192.58 410.66 192.67 410.66 192.67C410.66 192.67 410.76 192.45 410.42 191.46C410.06 190.47 409.95 190.33 409.95 190.33" id="fAJrOO2eH"></path><path d="M419.14 194.6C419.14 194.6 421.85 190.38 425.85 190.18C429.85 189.98 430.57 191.03 430.57 191.03C430.57 191.03 429.86 193.49 424.93 194.32C420 195.15 419.14 194.6 419.14 194.6" id="d12ws38MX9"></path><path d="M424.33 194.58C424.33 194.58 421.97 191.49 422.87 188.53C423.78 185.57 424.74 185.32 424.74 185.32C424.74 185.32 427.12 186.35 426.43 190.16C425.74 193.97 424.33 194.58 424.33 194.58" id="d12BMNAfQl"></path><path d="M425.95 190.7C425.95 190.7 425.97 191.39 425.62 192.15C425.26 192.92 425.13 193.02 425.13 193.02C425.13 193.02 425.04 192.78 425.44 191.81C425.84 190.85 425.95 190.7 425.95 190.7" id="dkdLlWebB"></path><path d="M413.12 184.29L398.63 172.01L401.92 191.54L413.12 184.29Z" id="c6B5CJaoJS"></path><path d="M379.81 352.71C380.21 353.06 380.7 353.33 381.26 353.48C383.1 353.98 384.99 352.95 385.47 351.17C385.95 349.4 384.84 347.55 383 347.05C382.43 346.9 381.87 346.89 381.35 346.99C381.25 347.38 380.74 349.28 379.81 352.71" id="a4mGZxw6IC"></path><path d="M380.57 351.72L377.72 351.5L380.22 352.81L380.57 351.72Z" id="b1JxkV9YTN"></path><path d="M381.2 349.34L378.37 349.12L380.87 350.44L381.2 349.34Z" id="a4r3JYoAIC"></path><path d="M381.82 347.09L378.97 346.86L381.48 348.19L381.82 347.09Z" id="b1vRVzJ7VU"></path><path d="M439.5 235.59C441.18 241.51 438.74 264.1 438.74 264.1C436.95 250.43 427.74 253.25 422.71 260.34C402 289.57 387.17 335.19 382.53 350.57C382.51 350.57 382.31 350.54 382.29 350.53C387.18 331.76 405.94 277.22 427.15 242.4C436.39 227.23 430.34 222.95 426.74 213.4C426.74 213.4 437.76 229.43 439.5 235.59" id="fb8b0XnS8"></path><path d="M435.57 267.5C437.31 266.89 448.7 266.43 451.24 268.97C454.53 247.67 444.05 222.71 444.05 222.71C444.05 222.71 450.46 245.7 448.31 254.25C447.09 259.14 445.33 260.38 445.33 260.38C443.74 258.26 431.05 241.28 429.46 239.16C429.46 239.16 438.75 253.71 435.57 267.5" id="atKjxBmhi"></path></defs><g><g><use xlink:href="#c2CbW4dXEC" opacity="1" fill="#c6b7a2" fill-opacity="1"></use><g><use xlink:href="#c2CbW4dXEC" opacity="1" fill-opacity="0" stroke="#000000" stroke-width="1" stroke-opacity="0"></use></g></g><g><g><use xlink:href="#cs0VBPY4o" opacity="1" fill-opacity="0" stroke="#000000" stroke-width="1" stroke-opacity="0"></use></g></g><g><use xlink:href="#a1zWJBbwKZ" opacity="1" fill="#c6b7a2" fill-opacity="1"></use><g><use xlink:href="#a1zWJBbwKZ" opacity="1" fill-opacity="0" stroke="#000000" stroke-width="1" stroke-opacity="0"></use></g></g><g><use xlink:href="#e5kjGL5og" opacity="1" fill="url(#gradientcgOaLcwsY)"></use><g><use xlink:href="#e5kjGL5og" opacity="1" fill-opacity="0" stroke="#000000" stroke-width="1" stroke-opacity="0"></use></g></g><g><use xlink:href="#bqkFAvLEd" opacity="1" fill="url(#gradientbY82eKDHV)"></use><g><use xlink:href="#bqkFAvLEd" opacity="1" fill-opacity="0" stroke="#000000" stroke-width="1" stroke-opacity="0"></use></g></g><g><use xlink:href="#c3PfhtoM5n" opacity="1" fill="url(#gradientb1oUSTqXZ7)"></use><g><use xlink:href="#c3PfhtoM5n" opacity="1" fill-opacity="0" stroke="#000000" stroke-width="1" stroke-opacity="0"></use></g></g><g><use xlink:href="#eyXQRRZKh" opacity="1" fill="url(#gradienta15P4vo3KF)"></use><g><use xlink:href="#eyXQRRZKh" opacity="1" fill-opacity="0" stroke="#000000" stroke-width="1" stroke-opacity="0"></use></g></g><g><use xlink:href="#d4Z3WcUDyd" opacity="1" fill="url(#gradienth14QA4ktEm)"></use><g><use xlink:href="#d4Z3WcUDyd" opacity="1" fill-opacity="0" stroke="#000000" stroke-width="1" stroke-opacity="0"></use></g></g><g><use xlink:href="#f5vvp1tBVJ" opacity="1" fill="url(#gradienta1Amxkx8XZ)"></use><g><use xlink:href="#f5vvp1tBVJ" opacity="1" fill-opacity="0" stroke="#000000" stroke-width="1" stroke-opacity="0"></use></g></g><g><use xlink:href="#aGrk4DxXL" opacity="1" fill="url(#gradientbnMFfaMwN)"></use><g><use xlink:href="#aGrk4DxXL" opacity="1" fill-opacity="0" stroke="#000000" stroke-width="1" stroke-opacity="0"></use></g></g><g><use xlink:href="#e4EpoquL6n" opacity="1" fill="url(#gradienth2Voe4BFa)"></use><g><use xlink:href="#e4EpoquL6n" opacity="1" fill-opacity="0" stroke="#000000" stroke-width="1" stroke-opacity="0"></use></g></g><g><use xlink:href="#d2m20UOsol" opacity="1" fill="url(#gradienta1AC3mhfQJ)"></use><g><use xlink:href="#d2m20UOsol" opacity="1" fill-opacity="0" stroke="#000000" stroke-width="1" stroke-opacity="0"></use></g></g><g><use xlink:href="#c7bFCNl7K" opacity="1" fill="url(#gradientd1mfj1MZ7Q)"></use><g><use xlink:href="#c7bFCNl7K" opacity="1" fill-opacity="0" stroke="#000000" stroke-width="1" stroke-opacity="0"></use></g></g><g><use xlink:href="#d1xsZfo3Ix" opacity="1" fill="url(#gradientb4dwHUyl66)"></use><g><use xlink:href="#d1xsZfo3Ix" opacity="1" fill-opacity="0" stroke="#000000" stroke-width="1" stroke-opacity="0"></use></g></g><g><use xlink:href="#a2R3SLFWT" opacity="1" fill="url(#gradientbFupFq97z)"></use><g><use xlink:href="#a2R3SLFWT" opacity="1" fill-opacity="0" stroke="#000000" stroke-width="1" stroke-opacity="0"></use></g></g><g><use xlink:href="#g1ubuUADk4" opacity="1" fill="#100f0d" fill-opacity="1"></use><g><use xlink:href="#g1ubuUADk4" opacity="1" fill-opacity="0" stroke="#000000" stroke-width="1" stroke-opacity="0"></use></g></g><g><use xlink:href="#d4PLxImnNi" opacity="1" fill="#100f0d" fill-opacity="1"></use><g><use xlink:href="#d4PLxImnNi" opacity="1" fill-opacity="0" stroke="#000000" stroke-width="1" stroke-opacity="0"></use></g></g><g><use xlink:href="#e6gqkBgWhu" opacity="1" fill="#100f0d" fill-opacity="1"></use><g><use xlink:href="#e6gqkBgWhu" opacity="1" fill-opacity="0" stroke="#000000" stroke-width="1" stroke-opacity="0"></use></g></g><g><use xlink:href="#a6hraqhka8" opacity="1" fill="#100f0d" fill-opacity="1"></use><g><use xlink:href="#a6hraqhka8" opacity="1" fill-opacity="0" stroke="#000000" stroke-width="1" stroke-opacity="0"></use></g></g><g><use xlink:href="#aSymUfjHN" opacity="1" fill="#100f0d" fill-opacity="1"></use><g><use xlink:href="#aSymUfjHN" opacity="1" fill-opacity="0" stroke="#000000" stroke-width="1" stroke-opacity="0"></use></g></g><g><use xlink:href="#c5Ax7gvhHK" opacity="1" fill="#100f0d" fill-opacity="1"></use><g><use xlink:href="#c5Ax7gvhHK" opacity="1" fill-opacity="0" stroke="#000000" stroke-width="1" stroke-opacity="0"></use></g></g><g><use xlink:href="#ae646lC5" opacity="1" fill="#100f0d" fill-opacity="1"></use><g><use xlink:href="#ae646lC5" opacity="1" fill-opacity="0" stroke="#000000" stroke-width="1" stroke-opacity="0"></use></g></g><g><use xlink:href="#aPnubzgJ2" opacity="1" fill="#100f0d" fill-opacity="1"></use><g><use xlink:href="#aPnubzgJ2" opacity="1" fill-opacity="0" stroke="#000000" stroke-width="1" stroke-opacity="0"></use></g></g><g><use xlink:href="#b1px4d6v6J" opacity="1" fill="#100f0d" fill-opacity="1"></use><g><use xlink:href="#b1px4d6v6J" opacity="1" fill-opacity="0" stroke="#000000" stroke-width="1" stroke-opacity="0"></use></g></g><g><use xlink:href="#aCPeACpq3" opacity="1" fill="#100f0d" fill-opacity="1"></use><g><use xlink:href="#aCPeACpq3" opacity="1" fill-opacity="0" stroke="#000000" stroke-width="1" stroke-opacity="0"></use></g></g><g><use xlink:href="#a18yVJ7Rh" opacity="1" fill="#100f0d" fill-opacity="1"></use><g><use xlink:href="#a18yVJ7Rh" opacity="1" fill-opacity="0" stroke="#000000" stroke-width="1" stroke-opacity="0"></use></g></g><g><use xlink:href="#aTGiyVu3d" opacity="1" fill="#100f0d" fill-opacity="1"></use><g><use xlink:href="#aTGiyVu3d" opacity="1" fill-opacity="0" stroke="#000000" stroke-width="1" stroke-opacity="0"></use></g></g><g><use xlink:href="#a9frhx2HN9" opacity="1" fill="#100f0d" fill-opacity="1"></use><g><use xlink:href="#a9frhx2HN9" opacity="1" fill-opacity="0" stroke="#000000" stroke-width="1" stroke-opacity="0"></use></g></g><g><use xlink:href="#a17DpjjACh" opacity="1" fill="#100f0d" fill-opacity="1"></use><g><use xlink:href="#a17DpjjACh" opacity="1" fill-opacity="0" stroke="#000000" stroke-width="1" stroke-opacity="0"></use></g></g><g><use xlink:href="#aJNjeGB6M" opacity="1" fill="#100f0d" fill-opacity="1"></use><g><use xlink:href="#aJNjeGB6M" opacity="1" fill-opacity="0" stroke="#000000" stroke-width="1" stroke-opacity="0"></use></g></g><g><use xlink:href="#b17C2ZWswz" opacity="1" fill="#100f0d" fill-opacity="1"></use><g><use xlink:href="#b17C2ZWswz" opacity="1" fill-opacity="0" stroke="#000000" stroke-width="1" stroke-opacity="0"></use></g></g><g><use xlink:href="#am3iAc7As" opacity="1" fill="#100f0d" fill-opacity="1"></use><g><use xlink:href="#am3iAc7As" opacity="1" fill-opacity="0" stroke="#000000" stroke-width="1" stroke-opacity="0"></use></g></g><g><use xlink:href="#b1AP3sXjK6" opacity="1" fill="#ffffff" fill-opacity="1"></use><g><use xlink:href="#b1AP3sXjK6" opacity="1" fill-opacity="0" stroke="#000000" stroke-width="1" stroke-opacity="0"></use></g></g><g><use xlink:href="#aXLkklrN8" opacity="1" fill="#100f0d" fill-opacity="1"></use><g><use xlink:href="#aXLkklrN8" opacity="1" fill-opacity="0" stroke="#000000" stroke-width="1" stroke-opacity="0"></use></g></g><g><use xlink:href="#a2pAM7BNns" opacity="1" fill="#100f0d" fill-opacity="1"></use><g><use xlink:href="#a2pAM7BNns" opacity="1" fill-opacity="0" stroke="#000000" stroke-width="1" stroke-opacity="0"></use></g></g><g><use xlink:href="#e2CBo4Jqbs" opacity="1" fill="#100f0d" fill-opacity="1"></use><g><use xlink:href="#e2CBo4Jqbs" opacity="1" fill-opacity="0" stroke="#000000" stroke-width="1" stroke-opacity="0"></use></g></g><g><use xlink:href="#b2bQhMSEl" opacity="1" fill="#100f0d" fill-opacity="1"></use><g><use xlink:href="#b2bQhMSEl" opacity="1" fill-opacity="0" stroke="#000000" stroke-width="1" stroke-opacity="0"></use></g></g><g><use xlink:href="#b77Fu5Smw" opacity="1" fill="#100f0d" fill-opacity="1"></use><g><use xlink:href="#b77Fu5Smw" opacity="1" fill-opacity="0" stroke="#000000" stroke-width="1" stroke-opacity="0"></use></g></g><g><use xlink:href="#ci3wwNh4" opacity="1" fill="#100f0d" fill-opacity="1"></use><g><use xlink:href="#ci3wwNh4" opacity="1" fill-opacity="0" stroke="#000000" stroke-width="1" stroke-opacity="0"></use></g></g><g><use xlink:href="#f4SN9Om2x5" opacity="1" fill="#100f0d" fill-opacity="1"></use><g><use xlink:href="#f4SN9Om2x5" opacity="1" fill-opacity="0" stroke="#000000" stroke-width="1" stroke-opacity="0"></use></g></g><g><use xlink:href="#b8eIi7X0EF" opacity="1" fill="#100f0d" fill-opacity="1"></use><g><use xlink:href="#b8eIi7X0EF" opacity="1" fill-opacity="0" stroke="#000000" stroke-width="1" stroke-opacity="0"></use></g></g><g><use xlink:href="#e2Z4GuQh5F" opacity="1" fill="#ffffff" fill-opacity="1"></use><g><use xlink:href="#e2Z4GuQh5F" opacity="1" fill-opacity="0" stroke="#000000" stroke-width="1" stroke-opacity="0"></use></g></g><g><use xlink:href="#b1eK22MEz" opacity="1" fill="#ffffff" fill-opacity="1"></use><g><use xlink:href="#b1eK22MEz" opacity="1" fill-opacity="0" stroke="#000000" stroke-width="1" stroke-opacity="0"></use></g></g><g><use xlink:href="#d17wIVvJpO" opacity="1" fill="#100f0d" fill-opacity="1"></use><g><use xlink:href="#d17wIVvJpO" opacity="1" fill-opacity="0" stroke="#000000" stroke-width="1" stroke-opacity="0"></use></g></g><g><use xlink:href="#fAJrOO2eH" opacity="1" fill="#ffffff" fill-opacity="1"></use><g><use xlink:href="#fAJrOO2eH" opacity="1" fill-opacity="0" stroke="#000000" stroke-width="1" stroke-opacity="0"></use></g></g><g><use xlink:href="#d12ws38MX9" opacity="1" fill="#ffffff" fill-opacity="1"></use><g><use xlink:href="#d12ws38MX9" opacity="1" fill-opacity="0" stroke="#000000" stroke-width="1" stroke-opacity="0"></use></g></g><g><use xlink:href="#d12BMNAfQl" opacity="1" fill="#100f0d" fill-opacity="1"></use><g><use xlink:href="#d12BMNAfQl" opacity="1" fill-opacity="0" stroke="#000000" stroke-width="1" stroke-opacity="0"></use></g></g><g><use xlink:href="#dkdLlWebB" opacity="1" fill="#ffffff" fill-opacity="1"></use><g><use xlink:href="#dkdLlWebB" opacity="1" fill-opacity="0" stroke="#000000" stroke-width="1" stroke-opacity="0"></use></g></g><g><use xlink:href="#c6B5CJaoJS" opacity="1" fill="#100f0d" fill-opacity="1"></use><g><use xlink:href="#c6B5CJaoJS" opacity="1" fill-opacity="0" stroke="#000000" stroke-width="1" stroke-opacity="0"></use></g></g><g><use xlink:href="#a4mGZxw6IC" opacity="1" fill="#100f0d" fill-opacity="1"></use><g><use xlink:href="#a4mGZxw6IC" opacity="1" fill-opacity="0" stroke="#000000" stroke-width="1" stroke-opacity="0"></use></g></g><g><use xlink:href="#b1JxkV9YTN" opacity="1" fill="#100f0d" fill-opacity="1"></use><g><use xlink:href="#b1JxkV9YTN" opacity="1" fill-opacity="0" stroke="#000000" stroke-width="1" stroke-opacity="0"></use></g></g><g><use xlink:href="#a4r3JYoAIC" opacity="1" fill="#100f0d" fill-opacity="1"></use><g><use xlink:href="#a4r3JYoAIC" opacity="1" fill-opacity="0" stroke="#000000" stroke-width="1" stroke-opacity="0"></use></g></g><g><use xlink:href="#b1vRVzJ7VU" opacity="1" fill="#100f0d" fill-opacity="1"></use><g><use xlink:href="#b1vRVzJ7VU" opacity="1" fill-opacity="0" stroke="#000000" stroke-width="1" stroke-opacity="0"></use></g></g><g><use xlink:href="#fb8b0XnS8" opacity="1" fill="#100f0d" fill-opacity="1"></use><g><use xlink:href="#fb8b0XnS8" opacity="1" fill-opacity="0" stroke="#000000" stroke-width="1" stroke-opacity="0"></use></g></g><g><use xlink:href="#atKjxBmhi" opacity="1" fill="#ffffff" fill-opacity="1"></use><g><use xlink:href="#atKjxBmhi" opacity="1" fill-opacity="0" stroke="#000000" stroke-width="1" stroke-opacity="0"></use></g></g></g></svg>