<?xml version="1.0" encoding="UTF-8" standalone="no"?>
<!DOCTYPE svg PUBLIC "-//W3C//DTD SVG 1.1//EN" "http://www.w3.org/Graphics/SVG/1.1/DTD/svg11.dtd">
<svg version="1.1" xmlns="http://www.w3.org/2000/svg" xmlns:xlink="http://www.w3.org/1999/xlink" preserveAspectRatio="xMidYMid meet" viewBox="466.2123383604443 95.18722875727244 203.1243680087241 443.58343247592404" width="199.12" height="439.58"><defs><path d="M467.21 531.26L666.34 531.26L666.34 96.19L467.21 96.19L467.21 531.26Z" id="b49I5bf3HB"></path><path d="M535.69 535.77C533.92 535.77 532.95 535.77 532.75 535.77C533.46 532.7 534.18 529.69 534.91 526.76C535.15 526.76 537.03 526.76 537.27 526.76C536.72 529.7 536.19 532.71 535.69 535.77" id="b7IMwvqeEn"></path><path d="M516.09 535.77C514.41 535.77 513.48 535.77 513.3 535.77C513.21 532.7 513.16 529.69 513.13 526.76C513.35 526.76 515.14 526.76 515.36 526.76C515.56 529.7 515.81 532.72 516.09 535.77" id="a2y49IYJae"></path><path d="M545.71 488.27C545.66 488.27 545.61 488.27 545.56 488.27C543.74 488.18 542.31 486.57 542.4 484.66C542.42 484.07 542.59 483.54 542.84 483.08C542.85 483.08 542.87 483.08 542.9 483.08L542.79 483.54L543.95 483.56L543.87 483.12L545.23 483.18L545.12 483.65L546.27 483.65L546.19 483.23L547.69 483.29L547.58 483.76L548.74 483.76L548.66 483.34C548.72 483.34 548.75 483.34 548.75 483.34C548.98 483.82 549.09 484.37 549.05 484.96C548.98 486.64 547.76 488 546.2 488.23C546.33 487.78 546.44 487.36 546.56 486.95C546.54 486.94 546.35 486.86 546.33 486.85C546.19 487.3 546.03 487.77 545.88 488.27C545.82 488.27 545.77 488.27 545.71 488.27" id="bQr0fwYKm"></path><linearGradient id="gradientc2d7AHEZwN" gradientUnits="userSpaceOnUse" x1="498.67" y1="442.73" x2="498.67" y2="515.87"><stop style="stop-color: #100f0d;stop-opacity: 1" offset="0%"></stop><stop style="stop-color: #c6b7a2;stop-opacity: 1" offset="100%"></stop></linearGradient><path d="M548.74 483.76L547.58 483.76L547.69 483.29L548.24 480.98L548.66 483.34L548.74 483.76" id="bkl93Qil7"></path><linearGradient id="gradienta8MoREeDu" gradientUnits="userSpaceOnUse" x1="498.67" y1="442.73" x2="498.67" y2="515.87"><stop style="stop-color: #100f0d;stop-opacity: 1" offset="0%"></stop><stop style="stop-color: #c6b7a2;stop-opacity: 1" offset="100%"></stop></linearGradient><path d="M546.27 483.65L545.12 483.65L545.23 483.18L545.77 480.87L546.19 483.23L546.27 483.65" id="lO3yGqmKt"></path><linearGradient id="gradientbfercKKpw" gradientUnits="userSpaceOnUse" x1="498.67" y1="442.73" x2="498.67" y2="515.87"><stop style="stop-color: #100f0d;stop-opacity: 1" offset="0%"></stop><stop style="stop-color: #c6b7a2;stop-opacity: 1" offset="100%"></stop></linearGradient><path d="M543.95 483.56L542.79 483.54L542.9 483.08L543.44 480.78L543.87 483.12L543.95 483.56" id="c1eprHZsit"></path><linearGradient id="gradientaXF6x6AJA" gradientUnits="userSpaceOnUse" x1="498.67" y1="442.73" x2="498.67" y2="515.87"><stop style="stop-color: #100f0d;stop-opacity: 1" offset="0%"></stop><stop style="stop-color: #c6b7a2;stop-opacity: 1" offset="100%"></stop></linearGradient><path d="M537.27 526.76C535.85 526.76 535.07 526.76 534.91 526.76C539 510.33 543.29 496.37 545.88 488.27C546.03 487.77 546.19 487.3 546.33 486.85C546.35 486.86 546.54 486.94 546.56 486.95C546.44 487.36 546.33 487.78 546.2 488.23C544.02 496.1 540.35 510.29 537.27 526.76" id="a1jEHfGiP"></path><linearGradient id="gradientc1KtzMTgMc" gradientUnits="userSpaceOnUse" x1="498.67" y1="442.73" x2="498.67" y2="515.87"><stop style="stop-color: #100f0d;stop-opacity: 1" offset="0%"></stop><stop style="stop-color: #c6b7a2;stop-opacity: 1" offset="100%"></stop></linearGradient><path d="M513.55 488.27C513.5 488.27 513.45 488.27 513.4 488.27C511.57 488.18 510.14 486.57 510.24 484.66C510.26 484.07 510.42 483.54 510.68 483.08C510.69 483.08 510.7 483.08 510.73 483.08L510.62 483.54L511.77 483.56L511.7 483.12L513.07 483.18L512.96 483.65L514.11 483.66L514.03 483.23L515.53 483.29L515.42 483.76L516.57 483.77L516.49 483.34C516.55 483.34 516.58 483.34 516.59 483.34C516.81 483.83 516.92 484.38 516.89 484.96C516.82 486.57 515.72 487.86 514.27 488.19C514.28 487.75 514.28 487.33 514.29 486.94C514.27 486.93 514.07 486.9 514.05 486.9C514.03 487.33 514 487.78 513.98 488.24C513.84 488.26 513.7 488.27 513.55 488.27" id="aaRL3d7bg"></path><linearGradient id="gradientblFR4TfUQ" gradientUnits="userSpaceOnUse" x1="498.67" y1="442.73" x2="498.67" y2="515.87"><stop style="stop-color: #100f0d;stop-opacity: 1" offset="0%"></stop><stop style="stop-color: #c6b7a2;stop-opacity: 1" offset="100%"></stop></linearGradient><path d="M516.57 483.77L515.42 483.76L515.53 483.29L516.08 480.98L516.49 483.34L516.57 483.77" id="fVo1icplg"></path><linearGradient id="gradientb4Cs7oQRMY" gradientUnits="userSpaceOnUse" x1="498.67" y1="442.73" x2="498.67" y2="515.87"><stop style="stop-color: #100f0d;stop-opacity: 1" offset="0%"></stop><stop style="stop-color: #c6b7a2;stop-opacity: 1" offset="100%"></stop></linearGradient><path d="M514.11 483.66L512.96 483.65L513.07 483.18L513.61 480.87L514.03 483.23L514.11 483.66" id="mJuVjEFEp"></path><linearGradient id="gradientc15mF1P3rq" gradientUnits="userSpaceOnUse" x1="498.67" y1="442.73" x2="498.67" y2="515.87"><stop style="stop-color: #100f0d;stop-opacity: 1" offset="0%"></stop><stop style="stop-color: #c6b7a2;stop-opacity: 1" offset="100%"></stop></linearGradient><path d="M511.77 483.56L510.62 483.54L510.73 483.08L511.28 480.78L511.7 483.12L511.77 483.56" id="a18WhXfJEX"></path><linearGradient id="gradientg1zqkgwmwB" gradientUnits="userSpaceOnUse" x1="498.67" y1="442.73" x2="498.67" y2="515.87"><stop style="stop-color: #100f0d;stop-opacity: 1" offset="0%"></stop><stop style="stop-color: #c6b7a2;stop-opacity: 1" offset="100%"></stop></linearGradient><path d="M515.36 526.76C514.02 526.76 513.28 526.76 513.13 526.76C512.96 510.44 513.55 496.44 513.98 488.24C514 487.78 514.03 487.33 514.05 486.9C514.07 486.9 514.27 486.93 514.29 486.94C514.28 487.33 514.28 487.75 514.27 488.19C514.17 496.16 514.22 510.43 515.36 526.76" id="c1OAqhFlOf"></path><linearGradient id="gradientcq85aCn1" gradientUnits="userSpaceOnUse" x1="498.67" y1="442.73" x2="498.67" y2="515.87"><stop style="stop-color: #100f0d;stop-opacity: 1" offset="0%"></stop><stop style="stop-color: #c6b7a2;stop-opacity: 1" offset="100%"></stop></linearGradient><path d="M588.47 130.39C589.71 129.46 591.2 129.05 592.73 129.35C594.26 129.65 595.74 130.52 597.03 131.62C599.7 133.85 601.4 136.93 601.97 140.4C603.13 147.38 601.15 154.64 599.65 161.68C598.76 165.19 597.79 168.74 597.33 172.39C597.1 174.22 596.99 176.08 597.26 177.93C597.52 179.74 598.36 181.73 600.16 182.57C601.9 183.3 603.85 183.48 605.63 182.86C607.39 182.26 608.89 181.1 610.09 179.73C612.43 177.01 613.98 173.22 613.07 169.67C613.89 173.24 612.24 176.93 609.88 179.54C608.67 180.85 607.18 181.93 605.49 182.44C603.85 183 601.93 182.73 600.42 182.06C598.89 181.29 598.19 179.55 597.98 177.83C597.77 176.09 597.92 174.28 598.19 172.51C598.74 168.95 599.78 165.49 600.77 161.97C602.45 154.91 604.71 147.73 603.69 140.12C597.75 122.66 588.47 130.39 588.47 130.39" id="eJ8n5cwBA"></path><path d="M593.95 128.42C593.1 127.02 593.75 124.95 594.34 124.31C594.53 124.08 594.78 124.19 594.82 124.14C594.83 124.14 594.61 124.05 594.44 123.95C594.1 123.88 593.43 122.93 592.15 124.18C590.65 125.42 591.76 129.81 593.33 129.87C593.33 129.88 593.35 129.89 593.37 129.92L593.45 129.91L593.58 129.94C593.55 129.92 593.53 129.91 593.53 129.91C594.42 129.88 595.28 129.46 593.95 128.42" id="l2qDG9T9Fp"></path><path d="M594.49 120.53L594.34 120.5L594.41 120.53L594.33 120.54C594.42 120.56 594.47 120.56 594.48 120.57C594.73 120.77 595.55 121.18 596.61 122.07C597.56 122.86 598.99 124.93 597.63 126.8C596.83 127.77 595.43 127.6 594.4 127.1C594.36 127.09 594.05 126.95 594.02 126.93C594.06 126.91 594.14 127.03 593.66 127.24C593.74 127.18 593.85 127.33 593.96 127.54C593.97 127.53 593.99 127.52 594.03 127.49L594.08 127.46C594.09 127.47 594.09 127.47 594.09 127.47C594.13 127.7 593.73 125.42 593.9 126.38C593.9 126.38 593.89 126.38 593.89 126.38L593.88 126.38L593.86 126.38L593.81 126.37C593.59 126.36 593.47 126.36 593.44 126.36C593.12 126.58 592.15 125.49 592.27 126.59C593.22 124.84 592.93 122.12 591.03 122.03C589.9 121.76 588.22 122.08 588.23 122.06C588.96 122.02 589.94 121.91 590.95 122.27C592.58 122.65 592.44 124.59 591.47 126.22C592.36 127.55 592.52 126.96 593.27 127.37C593.32 127.38 593.71 127.43 593.76 127.44C593.72 125.46 593.41 127.03 593.24 126.72C592.63 128.22 593.92 127.88 593.88 128.15C595 128.8 597.14 129.33 598.66 127.71C600.92 124.56 598.3 121.91 597.13 121.35C595.71 120.61 594.81 120.6 594.49 120.53" id="a1XbSVkKTX"></path><path d="M586.89 124.21L586.88 124.28L586.91 124.18L586.95 124.14C586.96 124.1 586.96 124.08 586.96 124.07C587.13 123.17 589.25 120.31 591.72 119.5C594.49 118.5 595.31 118.73 596.04 118.51C596.33 118.46 597.04 118.55 597.04 118.55C596.52 118.44 595.87 118.16 594.86 118.02C592.25 117.47 588.12 118.61 586.54 122.31C585.51 125.44 586.82 124.46 586.89 124.21" id="j1FBP9JiH"></path><path d="M588.62 123.74C590.78 122 592.54 122.4 593.61 122.93C594.03 123.11 594.31 123.42 594.5 123.54C594.49 123.54 594.29 123.24 594.22 123.05C593.98 122.64 594.06 121.77 591.95 121.15C589.87 120.49 587.12 123.19 587 124.1C587 124.1 586.98 124.11 586.96 124.14L586.95 124.19L586.91 124.29C586.94 124.26 586.95 124.24 586.95 124.24C587.02 124.72 586.99 125.43 588.62 123.74" id="a2WkRGkh2u"></path><path d="M592.79 132.44L592.84 132.4L592.72 132.43L592.64 132.43C592.61 132.45 592.59 132.46 592.59 132.46C591.43 133.05 587.48 131.41 585.98 129.6C584.07 127.68 583.76 127.45 583.2 127.36C583.01 127.3 582.72 126.75 582.72 126.74C582.83 127.35 583.02 128.21 583.54 129.38C584.9 132.33 588.56 135.29 592.84 134C595.77 132.56 593.24 132.49 592.79 132.44" id="apq3jiz3f"></path><path d="M599.79 123.11L599.74 123.05L599.79 123.21L599.79 123.3C599.81 123.34 599.83 123.36 599.83 123.37C600.47 124.81 598.49 129.71 596.76 131.84C595.01 134.53 594.89 135.02 594.96 135.74C594.94 135.99 594.41 136.55 594.39 136.54C595.02 136.17 596.06 135.7 597.15 134.81C599.95 132.55 603.2 128.55 601.75 123.01C599.38 119.11 599.96 122.64 599.79 123.11" id="f2nx2zMwBA"></path><path d="M590.24 122.71L590.22 122.8L590.32 122.64L590.4 122.57C590.42 122.52 590.43 122.49 590.43 122.49C590.83 121.87 592.02 120.31 594.05 119.61C596.12 118.82 598.59 119.39 600.22 120.31C603.82 122.66 603.96 123.52 604.9 123.54C605.24 123.66 605.6 124.6 605.6 124.61C605.46 123.66 605.17 121.9 603.83 120.02C602.12 117.53 598.88 115.71 595.67 116.06C592.33 116.32 589.57 118.54 588.52 121.31C587.4 126.15 589.76 123.05 590.24 122.71" id="cSjlH5Gow"></path><path d="M595 120.15L594.93 120.17L595.1 120.19L595.19 120.23C595.24 120.22 595.27 120.22 595.27 120.21C597 119.67 601.12 124.52 599.78 128.09C598.97 131.68 598.78 132.12 599.07 132.86C599.12 133.12 598.62 133.86 598.61 133.86C599.28 133.28 600.25 132.48 601.22 130.98C602.52 129.1 603.49 125.94 602.22 122.89C601.29 120.69 598.67 117.95 595.48 118.17C590.71 119.47 594.65 119.84 595 120.15" id="evLk2F6nz"></path><path d="M591.81 129.43L591.88 129.43L591.75 129.4L591.69 129.36C591.66 129.35 591.64 129.34 591.63 129.34C590.12 129.11 589.05 124.84 589.34 122.62C589.41 119.85 589.7 119.52 589.31 118.97C589.24 118.77 589.52 118.13 589.53 118.13C589.16 118.68 588.39 119.43 587.91 120.62C586.71 123.47 586.35 128.33 590.91 130.74C594.74 131.21 592.01 129.65 591.81 129.43" id="f33NwUDkoZ"></path><path d="M592.84 128.37C590.84 127.62 590.16 125.57 590.24 124.79C590.29 124.45 590.41 124.25 590.52 124.12C590.53 124.12 590.26 124.25 590.08 124.3C589.64 124.48 588.81 124.24 588.44 126.04C587.96 127.96 591.7 130.52 592.9 129.94C592.91 129.95 592.93 129.95 592.96 129.96L593.04 129.93L593.16 129.91C593.13 129.9 593.11 129.9 593.1 129.9C593.77 129.62 595.04 128.76 592.84 128.37" id="c2E9we7c1S"></path><path d="M598.46 123.69C597.45 125.96 595.01 127.44 593.55 127.74C592.99 127.9 592.68 127.74 592.49 127.72C592.47 127.74 592.74 127.96 592.85 128.17C593.21 128.62 593.16 129.71 595.63 129.61C598.11 129.7 600.98 125.05 600.43 123.56C600.43 123.56 600.43 123.53 600.44 123.49L600.4 123.4L600.37 123.24C600.36 123.29 600.36 123.31 600.36 123.32C600.01 122.35 598.72 121.43 598.46 123.69" id="ayKTYc2QD"></path><path d="M594.76 127.93C592.23 127.42 593.71 125.45 593.99 125.19C594.25 125.01 594.49 124.93 594.68 124.92C594.67 124.9 594.31 124.81 594.08 124.72C593.51 124.6 592.68 123.64 591.04 125.29C590.36 126.03 590.41 128.05 591.67 129.27C592.92 130.57 594.92 130.19 595.52 129.92C595.52 129.92 595.55 129.92 595.6 129.92L595.69 129.85L595.84 129.79C595.8 129.79 595.77 129.79 595.77 129.79C596.59 129.12 597.4 127.51 594.76 127.93" id="a2euO28kPb"></path><path d="M595.79 129.86L595.85 129.8L595.69 129.88L595.59 129.9C595.56 129.94 595.54 129.95 595.53 129.96C594.94 130.26 593.07 131 591.2 129.91C589.37 128.9 588.27 126.73 587.79 125.16C586.92 121.39 586.94 120.92 586.31 120.36C586.13 120.13 586.26 119.23 586.27 119.24C585.92 120.04 585.41 121.23 585.13 123.1C584.77 125.62 585.48 128.75 587.62 130.9C589.62 133.37 594.36 133.92 596.52 131.85C599.78 128.38 596.35 129.83 595.79 129.86" id="d3hqu24MGj"></path><path d="M596.14 126.08L596.2 126.04L596.06 126.07L595.97 126.07C595.94 126.09 595.92 126.1 595.91 126.1C595.37 126.2 593.7 126.35 592.47 125.04C591.25 123.81 590.89 121.81 590.88 120.45C591.07 117.24 591.2 116.87 590.83 116.28C590.74 116.05 591.05 115.37 591.07 115.38C590.59 115.93 589.9 116.76 589.25 118.18C588.37 120.1 588.19 122.77 589.39 124.98C590.39 127.42 594.05 128.98 596.25 127.83C599.67 125.85 596.59 126.18 596.14 126.08" id="khXBTu4XR"></path><path d="M592.41 123.27C595.58 121.57 596.4 124.27 595.78 124.05C596.16 123.87 595.51 124.12 595.1 124.09C595.08 124.11 595.54 124.04 595.76 124.02C596.24 123.8 597.75 124.27 597.9 122C597.99 121.04 596.26 119.54 594.43 119.8C592.54 119.91 591.08 121.3 590.66 121.87C590.65 121.88 590.63 121.89 590.58 121.92L590.53 122.02L590.42 122.17C590.47 122.14 590.49 122.12 590.5 122.12C590.1 123.16 590.2 125.09 592.41 123.27" id="cCOYm1OMn"></path><path d="M594.33 122.95C595.18 123.81 594.96 124.59 595 125.57C594.68 125.86 594.4 125.94 593.93 126.12C593.61 126.23 593.35 126.16 593.22 126.09C593.22 126.09 593.47 126.33 593.64 126.51C594.08 126.87 594.4 128.04 596.55 127.28C599.34 126.5 596.79 120.47 594.78 120.95C594.77 120.95 594.75 120.93 594.71 120.9L594.61 120.91L594.45 120.88C594.48 120.9 594.51 120.91 594.51 120.92C593.4 121.01 592.34 122.02 594.33 122.95" id="afsKepfis"></path><path d="M605.13 146.13C607.55 143.67 611.43 142.91 613.49 143.23C614.29 143.29 614.61 143.65 614.85 143.77C614.88 143.75 614.64 143.33 614.59 143C614.35 142.25 614.94 140.86 611.68 139.79C608.49 138.48 602.51 143.15 602.51 145.35C602.5 145.35 602.49 145.38 602.46 145.44C602.46 145.52 602.46 145.56 602.46 145.57C602.44 145.72 602.43 145.79 602.43 145.79C602.43 145.78 602.47 145.71 602.48 145.7C602.46 147.13 603.7 148.94 605.13 146.13" id="c122OuY19Z"></path><path d="M601.14 147.82C599.02 145.09 595.24 143.9 593.17 143.99C592.36 143.96 592 144.29 591.75 144.38C591.72 144.35 592.01 143.97 592.09 143.65C592.42 142.93 591.99 141.47 595.35 140.78C598.66 139.83 604.09 145.14 603.84 147.33C603.84 147.34 603.86 147.37 603.88 147.42C603.87 147.5 603.86 147.55 603.86 147.56C603.86 147.71 603.87 147.78 603.87 147.78C603.87 147.77 603.83 147.7 603.83 147.69C603.68 149.11 602.25 150.77 601.14 147.82" id="b3vkkAttJY"></path><path d="M545.72 345.95C556.52 340.01 565.86 317.4 543.39 301.84C519.09 284.99 485.05 261.44 533.16 202.29C533.76 201.55 538.6 195.59 539.21 194.85C534.81 199.94 523.09 211.79 512.98 225.7C498.55 245.57 492.01 278.04 512.61 322.18C521.82 341.93 532.54 353.18 545.72 345.95" id="b4WlplxCH"></path><path d="M475.99 117.53C476.46 117.27 477 117.11 477.57 117.09C479.49 117.01 481.1 118.43 481.17 120.27C481.26 122.1 479.77 123.66 477.86 123.75C477.27 123.77 476.72 123.66 476.24 123.44C476.23 123.04 476.14 121.07 475.99 117.53" id="a4MJMX1FYo"></path><path d="M476.51 118.66L473.69 118.25L476.42 117.51L476.51 118.66Z" id="cDeYtz24V"></path><path d="M476.61 121.12L473.8 120.71L476.53 119.97L476.61 121.12Z" id="bfIQSAQIW"></path><path d="M476.71 123.45L473.89 123.04L476.63 122.3L476.71 123.45Z" id="g1bMquCqdw"></path><path d="M516.81 221.71C508.48 232.29 500.85 225.09 497.5 217.07C483.74 184 479.31 136.24 478.18 120.21C478.15 120.2 477.96 120.19 477.93 120.19C478.57 139.58 483.53 196.03 496.55 234.66C502.23 251.5 499.88 266.59 500.78 279.41C501.85 275.56 507.19 256.33 516.81 221.71" id="aIpIvZGrh"></path><path d="M598.63 163.24C599.02 163.61 599.5 163.89 600.06 164.05C601.89 164.6 603.8 163.61 604.32 161.84C604.85 160.08 603.78 158.21 601.95 157.67C601.39 157.5 600.83 157.48 600.31 157.57C600.2 157.95 599.64 159.84 598.63 163.24" id="a3vsCyRtKC"></path><path d="M599.41 162.27L596.57 161.99L599.04 163.36L599.41 162.27Z" id="e1NAMkGEWk"></path><path d="M600.1 159.91L597.27 159.62L599.74 161.01L600.1 159.91Z" id="a1oMZYdwDd"></path><path d="M600.77 157.68L597.93 157.39L600.4 158.77L600.77 157.68Z" id="a11TPnjVAd"></path><path d="M506.38 247.75C506.95 241.62 517.36 221.43 517.36 221.43C514.1 234.83 523.72 235.52 530.96 230.71C560.81 210.9 591.08 173.69 600.95 161.01C600.97 161.02 601.14 161.12 601.16 161.13C589.83 176.89 552.69 221 520.36 245.85C506.27 256.67 510.37 262.85 510.29 273.05C510.29 273.05 505.78 254.13 506.38 247.75" id="b2nhcQLkYP"></path><path d="M548.75 473.99C548.97 473.5 549.08 472.95 549.06 472.37C548.97 470.46 547.41 468.98 545.57 469.06C543.74 469.14 542.32 470.76 542.4 472.66C542.42 473.25 542.59 473.78 542.85 474.25C543.24 474.23 545.21 474.14 548.75 473.99" id="k49OKi9mZF"></path><path d="M547.58 473.57L548.24 476.34L548.73 473.56L547.58 473.57Z" id="h46FPuJcMl"></path><path d="M545.12 473.67L545.77 476.45L546.27 473.67L545.12 473.67Z" id="gSX8KZ41P"></path><path d="M542.79 473.78L543.45 476.56L543.94 473.77L542.79 473.78Z" id="anwdvaIex"></path><path d="M545.12 345.26C533.29 348.08 532.49 363.99 532.05 372.67C530.26 408.45 542.22 454.9 546.55 470.38C546.53 470.39 546.35 470.46 546.33 470.47C540.19 451.39 521.88 391.77 524.42 350.25C524.38 339.27 528.31 339.84 517.42 322.28C517.42 322.28 533.91 334.32 537.69 333.15C538.19 333.95 540.66 337.99 545.12 345.26" id="bdLryBtZV"></path><path d="M516.59 473.99C516.81 473.5 516.92 472.95 516.89 472.37C516.8 470.45 515.24 468.98 513.4 469.06C511.57 469.14 510.15 470.76 510.23 472.66C510.26 473.25 510.42 473.78 510.68 474.25C511.07 474.23 513.04 474.14 516.59 473.99" id="a8BYS9DFe"></path><path d="M515.42 473.57L516.07 476.34L516.57 473.56L515.42 473.57Z" id="aUC0AfhB2"></path><path d="M512.95 473.67L513.61 476.45L514.11 473.67L512.95 473.67Z" id="c1Xlo0s4fO"></path><path d="M510.63 473.78L511.28 476.56L511.78 473.77L510.63 473.78Z" id="b4gE3pMWYk"></path><path d="M536.79 344.57C536.71 344.71 536.63 344.85 536.55 344.99C534.15 349.25 526.71 367.13 525.1 372.21C514.27 406.36 514.03 454.32 514.29 470.39C514.27 470.39 514.08 470.42 514.05 470.43C512.97 450.41 510.41 388.09 523.42 348.58C526.18 337.95 529.83 339.5 523.76 319.75C526.92 323.63 530.25 327.85 534.06 331.1C536.2 332.92 539.04 333.91 539.35 337C539.6 339.4 537.99 342.42 536.79 344.57" id="b2Fmoef4kD"></path><path d="M521.79 197.42C520.14 196.37 518.65 196.35 516.37 196.52C513.84 196.79 501.71 199.61 501.7 199.67C501.71 199.68 498.65 200.48 495.63 202.23C494.18 203.15 492.6 204.19 491.86 205.63C491.05 207.05 491.35 208.55 491.78 209.08C492.52 210.28 493.96 209.86 494.58 209.24C494.88 208.94 495.1 208.28 494.53 208.01C493.94 207.75 493.57 208.16 493.4 208.45C494.33 207.67 494.76 208.4 494.45 208.9C494.09 209.49 492.91 210.08 492.12 208.97C490.83 207.17 492.86 203.73 496.13 202.32C499.08 200.6 501.83 200.08 501.82 200.07C501.78 200.03 513.98 197.2 516.42 196.94C518.67 196.78 520.03 196.63 521.79 197.42" id="cxuaDyFa1"></path><path d="M522.37 201.27C521.4 200.6 520.5 200.54 519.11 200.6C517.57 200.7 510.14 202.12 510.13 202.15C510.14 202.17 508.26 202.57 506.39 203.57C505.49 204.09 504.51 204.68 504.02 205.54C503.5 206.38 503.65 207.29 503.89 207.62C504.31 208.38 505.19 208.15 505.58 207.79C505.77 207.62 505.93 207.22 505.58 207.04C505.24 206.88 505.01 207.11 504.89 207.28C505.46 206.83 505.62 207.29 505.43 207.58C505.19 207.93 504.49 207.9 504.18 207.3C503.56 206.12 504.82 204.63 506.8 203.73C508.68 202.87 510.36 202.46 510.35 202.44C510.33 202.42 517.64 200.95 519.12 200.86C520.49 200.8 521.32 200.75 522.37 201.27" id="chCGwXNsO"></path><path d="M528.61 199.36C527.05 198.2 525.57 198.07 523.29 198.08C520.74 198.17 508.44 200.13 508.43 200.18C508.43 200.19 505.32 200.78 502.19 202.31C500.67 203.12 499.03 204.05 498.19 205.44C497.28 206.8 497.48 208.31 497.87 208.87C498.59 209.92 499.98 209.81 500.64 209.23C500.96 208.95 501.23 208.3 500.68 208C500.12 207.69 499.72 208.08 499.52 208.35C500.5 207.65 500.88 208.4 500.54 208.88C500.14 209.44 498.44 209.63 498.05 208.61C496 203.24 508.53 200.61 508.52 200.58C508.48 200.54 520.85 198.59 523.3 198.5C525.56 198.49 526.92 198.45 528.61 199.36" id="a18VC2UoPV"></path><path d="M540.05 198.19C541.51 196.9 542.98 196.64 545.25 196.46C547.79 196.33 560.22 197.22 560.23 197.26C560.22 197.28 563.38 197.59 566.63 198.85C568.21 199.52 569.93 200.31 570.89 201.62C571.91 202.89 571.85 204.41 571.5 205.01C570.96 206.31 569.47 206.13 568.77 205.61C568.42 205.36 568.1 204.73 568.63 204.38C569.15 204.04 569.59 204.38 569.8 204.63C568.77 204.02 568.46 204.81 568.83 205.25C569.29 205.77 570.55 206.17 571.16 204.95C572.14 202.98 569.6 199.89 566.15 199.01C562.97 197.78 560.16 197.7 560.17 197.68C560.21 197.63 547.72 196.75 545.27 196.88C543.02 197.07 541.65 197.14 540.05 198.19" id="a1rpAAYld"></path><path d="M540.07 202.09C540.92 201.27 541.81 201.08 543.18 200.91C544.72 200.77 552.29 201.01 552.29 201.04C552.29 201.05 554.21 201.17 556.21 201.85C557.18 202.22 558.25 202.66 558.86 203.43C559.51 204.18 559.51 205.1 559.31 205.47C559.02 206.28 558.11 206.2 557.67 205.9C557.46 205.75 557.24 205.38 557.55 205.16C557.87 204.94 558.14 205.14 558.27 205.28C557.64 204.94 557.55 205.4 557.79 205.66C558.08 205.97 558.77 205.84 558.98 205.2C559.41 203.93 557.93 202.66 555.84 202.08C553.84 201.52 552.11 201.38 552.12 201.37C552.14 201.34 544.69 201.03 543.21 201.17C541.85 201.33 541.02 201.41 540.07 202.09" id="f5AMxUl1ej"></path><path d="M533.6 201.18C534.96 199.79 536.41 199.43 538.66 199.08C541.19 198.77 553.65 198.77 553.67 198.83C553.67 198.84 556.83 198.93 560.17 199.96C561.78 200.52 563.56 201.18 564.61 202.41C565.72 203.61 565.76 205.14 565.46 205.75C564.91 206.9 563.52 207.01 562.78 206.54C562.41 206.32 562.04 205.72 562.55 205.34C563.05 204.94 563.51 205.26 563.74 205.5C562.67 204.96 562.41 205.77 562.82 206.18C563.31 206.67 565.01 206.6 565.23 205.52C566.42 199.91 553.63 199.26 553.64 199.24C553.68 199.19 541.15 199.2 538.72 199.5C536.49 199.84 535.13 200.01 533.6 201.18" id="c2cuXM2r5"></path><path d="M547.69 195.33C547.83 201.83 540.34 207.27 530.94 207.49C521.53 207.71 513.78 202.62 513.63 196.13C513.48 189.64 520.99 184.18 530.39 183.96C539.79 183.75 547.53 188.83 547.69 195.33" id="a6ki5nDgET"></path><path d="M537.2 185.02L545.97 178.08L545.38 189.44L537.2 185.02Z" id="aok7c5jR"></path><path d="M524.53 185.58L516.09 178.44L516.29 189.89L524.53 185.58Z" id="b14GLVGfTY"></path><path d="M530.76 202.56C530.76 202.56 531.66 201.22 531.65 200.88C531.64 200.55 529.33 200.93 529.33 200.93C529.42 201.04 529.9 201.58 530.76 202.56" id="c4u1cACTsh"></path><path d="M531.98 197.03C531.98 197.03 534.48 192.67 538.47 192.29C542.46 191.9 543.23 192.92 543.23 192.92C543.23 192.92 542.63 195.41 537.75 196.47C532.86 197.53 531.98 197.03 531.98 197.03" id="b553HxDSXY"></path><path d="M537.16 196.76C537.16 196.76 534.66 193.79 535.42 190.78C536.19 187.78 537.13 187.48 537.13 187.48C537.13 187.48 539.56 188.41 539.05 192.24C538.54 196.08 537.16 196.76 537.16 196.76" id="f3Tfjl4kzz"></path><path d="M538.6 192.81C538.6 192.81 538.65 193.5 538.33 194.28C538.01 195.06 537.89 195.16 537.89 195.16C537.89 195.16 537.78 194.93 538.13 193.94C538.49 192.95 538.6 192.81 538.6 192.81" id="crF5B9EiF"></path><path d="M529.41 197.09C529.41 197.09 526.7 192.86 522.7 192.66C518.7 192.46 517.97 193.51 517.97 193.51C517.97 193.51 518.69 195.97 523.62 196.81C528.55 197.63 529.41 197.09 529.41 197.09" id="a1mjbtDjw"></path><path d="M524.22 197.06C524.22 197.06 526.58 193.97 525.68 191.01C524.77 188.05 523.81 187.8 523.81 187.8C523.81 187.8 521.42 188.83 522.12 192.64C522.8 196.45 524.22 197.06 524.22 197.06" id="a1Y7XAUoas"></path><path d="M522.59 193.18C522.59 193.18 522.58 193.87 522.93 194.64C523.28 195.4 523.41 195.5 523.41 195.5C523.41 195.5 523.5 195.26 523.11 194.3C522.71 193.33 522.59 193.18 522.59 193.18" id="c16WE94mcP"></path><path d="M551.35 352.08C555.42 359.2 574.32 373.98 594.32 382.02C614.08 391.18 634.46 390.78 634.32 390.39C634.28 390.29 639.32 390.59 646.77 388.2C654.03 385.88 663.54 378.59 665.8 367.34C668.06 356.37 663 343.97 654.17 338.87C644.89 333.26 635.53 339.27 633.9 342.79C626.31 355.5 636.9 367.58 647.28 365.03C649.54 364.74 651.81 363.78 653.72 361.68C656.18 358.95 656.61 354.62 655.08 352.33C653.88 350.01 652.5 349.03 652.53 349C652.51 349.04 651.44 347.74 648.99 346.71C646.74 344.76 640.25 348.03 643.06 352.88C643.24 353.19 643.47 353.48 643.73 353.75C643.86 353.99 644.05 354.16 644.32 354.24C644.72 354.52 645.18 354.75 645.72 354.89C647.28 355.31 648.63 353.85 648.81 352.76C649.73 350.46 647.2 348.73 645.3 349.19C646 348.45 647.19 348.15 648.18 348.85C650.01 349.62 650.99 350.7 650.99 350.67C650.65 350.32 656.49 355.13 651.96 360.2C647.96 364.98 640.03 362.03 638.74 360.78C635.45 358.55 634.88 356.18 633.52 352.71C633.37 349.97 634.05 347 635.78 344.08C637.13 341.19 644.96 336.03 653.01 340.86C660.83 345.27 665.66 356.88 663.56 366.88C661.5 377.12 652.78 383.87 646.01 386.04C639.11 388.26 634.17 388.02 634.22 388.11C634.37 388.47 614.69 388.91 595.22 379.9C575.47 371.96 556.97 357.43 553.19 350.73C545.05 339.55 544.67 329.79 551.21 319.77C543.34 328.69 542.59 340.32 551.35 352.08" id="b9xzTjlI7"></path><path d="M538.34 325.55C546.5 319.36 552.46 308.77 552.46 308.77C559.24 319.69 564.4 330.88 576.32 331.32C575.4 331.28 570.12 334.76 568.96 335.83C567.08 337.57 566.53 341.93 563.91 341.17C562.21 340.67 560.96 338.32 559.41 337.36C556.47 335.52 555.12 337.94 552.51 340.35C549.71 342.93 549.16 345.73 546.09 347.88C544.39 349.08 542.14 350.76 540.16 350.55C537.86 350.31 537.76 348.08 535.8 346.69C533.48 345.06 527.91 347.45 525.86 349.14C523.91 350.75 521.56 355.94 518.56 355.71C516.4 355.54 515.48 352.22 513.37 351.77C511.41 351.34 509.62 353.38 507.56 352.44C505.88 351.68 505.33 350.19 503.32 349.66C501.13 349.09 498.14 349.15 497.28 346.54C499.48 346.17 501.75 346.71 503.93 346.38C506.51 345.99 509.7 344.47 511.68 342.77C514.02 340.75 516.07 338.04 517.11 335.14C517.71 333.48 517.6 331.74 517.6 331.74C517.6 331.74 531.69 330.6 538.34 325.55" id="a6S67NeK7"></path><path d="M516.46 270.96C514.73 270.18 513.12 268.72 511.48 267.91C509.24 266.82 506.81 266.61 504.38 266.99C501.87 267.39 499.92 269.35 496.33 270.5C495.65 243.84 503.01 222.73 503.01 222.73C503.01 222.73 501.97 235.81 502.81 241.01C504.19 249.64 506.04 256.42 506.04 256.42C507.63 253.71 520.33 232.01 521.91 229.3C521.91 229.3 513.28 253.34 516.46 270.96" id="e4AGWYrb8"></path><path d="M540.93 184.97L546.83 190.93L549.49 184.21L541.18 184.29L537.73 179.51L533.89 185.11L540.93 184.97" id="czJsibtVL"></path><path d="M515.76 262.39C515.76 262.39 519.17 276.37 531.28 289.1C543.39 301.84 551.83 304.71 554.29 312.93C556.76 321.15 534.98 335.12 534.98 335.12C533.19 335.12 518.9 335.14 517.11 335.14C517.11 335.14 510.11 327.89 502.93 306.23C494.68 281.33 496.73 255.75 496.73 255.75C498 256.19 504.34 258.41 515.76 262.39" id="bhl5nhcA"></path></defs><g><g><g><use xlink:href="#b49I5bf3HB" opacity="1" fill-opacity="0" stroke="#000000" stroke-width="1" stroke-opacity="0"></use></g></g><g><use xlink:href="#b7IMwvqeEn" opacity="1" fill="#c6b7a2" fill-opacity="1"></use><g><use xlink:href="#b7IMwvqeEn" opacity="1" fill-opacity="0" stroke="#000000" stroke-width="1" stroke-opacity="0"></use></g></g><g><use xlink:href="#a2y49IYJae" opacity="1" fill="#c6b7a2" fill-opacity="1"></use><g><use xlink:href="#a2y49IYJae" opacity="1" fill-opacity="0" stroke="#000000" stroke-width="1" stroke-opacity="0"></use></g></g><g><use xlink:href="#bQr0fwYKm" opacity="1" fill="url(#gradientc2d7AHEZwN)"></use><g><use xlink:href="#bQr0fwYKm" opacity="1" fill-opacity="0" stroke="#000000" stroke-width="1" stroke-opacity="0"></use></g></g><g><use xlink:href="#bkl93Qil7" opacity="1" fill="url(#gradienta8MoREeDu)"></use><g><use xlink:href="#bkl93Qil7" opacity="1" fill-opacity="0" stroke="#000000" stroke-width="1" stroke-opacity="0"></use></g></g><g><use xlink:href="#lO3yGqmKt" opacity="1" fill="url(#gradientbfercKKpw)"></use><g><use xlink:href="#lO3yGqmKt" opacity="1" fill-opacity="0" stroke="#000000" stroke-width="1" stroke-opacity="0"></use></g></g><g><use xlink:href="#c1eprHZsit" opacity="1" fill="url(#gradientaXF6x6AJA)"></use><g><use xlink:href="#c1eprHZsit" opacity="1" fill-opacity="0" stroke="#000000" stroke-width="1" stroke-opacity="0"></use></g></g><g><use xlink:href="#a1jEHfGiP" opacity="1" fill="url(#gradientc1KtzMTgMc)"></use><g><use xlink:href="#a1jEHfGiP" opacity="1" fill-opacity="0" stroke="#000000" stroke-width="1" stroke-opacity="0"></use></g></g><g><use xlink:href="#aaRL3d7bg" opacity="1" fill="url(#gradientblFR4TfUQ)"></use><g><use xlink:href="#aaRL3d7bg" opacity="1" fill-opacity="0" stroke="#000000" stroke-width="1" stroke-opacity="0"></use></g></g><g><use xlink:href="#fVo1icplg" opacity="1" fill="url(#gradientb4Cs7oQRMY)"></use><g><use xlink:href="#fVo1icplg" opacity="1" fill-opacity="0" stroke="#000000" stroke-width="1" stroke-opacity="0"></use></g></g><g><use xlink:href="#mJuVjEFEp" opacity="1" fill="url(#gradientc15mF1P3rq)"></use><g><use xlink:href="#mJuVjEFEp" opacity="1" fill-opacity="0" stroke="#000000" stroke-width="1" stroke-opacity="0"></use></g></g><g><use xlink:href="#a18WhXfJEX" opacity="1" fill="url(#gradientg1zqkgwmwB)"></use><g><use xlink:href="#a18WhXfJEX" opacity="1" fill-opacity="0" stroke="#000000" stroke-width="1" stroke-opacity="0"></use></g></g><g><use xlink:href="#c1OAqhFlOf" opacity="1" fill="url(#gradientcq85aCn1)"></use><g><use xlink:href="#c1OAqhFlOf" opacity="1" fill-opacity="0" stroke="#000000" stroke-width="1" stroke-opacity="0"></use></g></g><g><use xlink:href="#eJ8n5cwBA" opacity="1" fill="#ffffff" fill-opacity="1"></use><g><use xlink:href="#eJ8n5cwBA" opacity="1" fill-opacity="0" stroke="#000000" stroke-width="1" stroke-opacity="0"></use></g></g><g><use xlink:href="#l2qDG9T9Fp" opacity="1" fill="#ffffff" fill-opacity="1"></use><g><use xlink:href="#l2qDG9T9Fp" opacity="1" fill-opacity="0" stroke="#000000" stroke-width="1" stroke-opacity="0"></use></g></g><g><use xlink:href="#a1XbSVkKTX" opacity="1" fill="#ffffff" fill-opacity="1"></use><g><use xlink:href="#a1XbSVkKTX" opacity="1" fill-opacity="0" stroke="#000000" stroke-width="1" stroke-opacity="0"></use></g></g><g><use xlink:href="#j1FBP9JiH" opacity="1" fill="#ffffff" fill-opacity="1"></use><g><use xlink:href="#j1FBP9JiH" opacity="1" fill-opacity="0" stroke="#000000" stroke-width="1" stroke-opacity="0"></use></g></g><g><use xlink:href="#a2WkRGkh2u" opacity="1" fill="#ffffff" fill-opacity="1"></use><g><use xlink:href="#a2WkRGkh2u" opacity="1" fill-opacity="0" stroke="#000000" stroke-width="1" stroke-opacity="0"></use></g></g><g><use xlink:href="#apq3jiz3f" opacity="1" fill="#ffffff" fill-opacity="1"></use><g><use xlink:href="#apq3jiz3f" opacity="1" fill-opacity="0" stroke="#000000" stroke-width="1" stroke-opacity="0"></use></g></g><g><use xlink:href="#f2nx2zMwBA" opacity="1" fill="#ffffff" fill-opacity="1"></use><g><use xlink:href="#f2nx2zMwBA" opacity="1" fill-opacity="0" stroke="#000000" stroke-width="1" stroke-opacity="0"></use></g></g><g><use xlink:href="#cSjlH5Gow" opacity="1" fill="#ffffff" fill-opacity="1"></use><g><use xlink:href="#cSjlH5Gow" opacity="1" fill-opacity="0" stroke="#000000" stroke-width="1" stroke-opacity="0"></use></g></g><g><use xlink:href="#evLk2F6nz" opacity="1" fill="#ffffff" fill-opacity="1"></use><g><use xlink:href="#evLk2F6nz" opacity="1" fill-opacity="0" stroke="#000000" stroke-width="1" stroke-opacity="0"></use></g></g><g><use xlink:href="#f33NwUDkoZ" opacity="1" fill="#ffffff" fill-opacity="1"></use><g><use xlink:href="#f33NwUDkoZ" opacity="1" fill-opacity="0" stroke="#000000" stroke-width="1" stroke-opacity="0"></use></g></g><g><use xlink:href="#c2E9we7c1S" opacity="1" fill="#ffffff" fill-opacity="1"></use><g><use xlink:href="#c2E9we7c1S" opacity="1" fill-opacity="0" stroke="#000000" stroke-width="1" stroke-opacity="0"></use></g></g><g><use xlink:href="#ayKTYc2QD" opacity="1" fill="#ffffff" fill-opacity="1"></use><g><use xlink:href="#ayKTYc2QD" opacity="1" fill-opacity="0" stroke="#000000" stroke-width="1" stroke-opacity="0"></use></g></g><g><use xlink:href="#a2euO28kPb" opacity="1" fill="#ffffff" fill-opacity="1"></use><g><use xlink:href="#a2euO28kPb" opacity="1" fill-opacity="0" stroke="#000000" stroke-width="1" stroke-opacity="0"></use></g></g><g><use xlink:href="#d3hqu24MGj" opacity="1" fill="#ffffff" fill-opacity="1"></use><g><use xlink:href="#d3hqu24MGj" opacity="1" fill-opacity="0" stroke="#000000" stroke-width="1" stroke-opacity="0"></use></g></g><g><use xlink:href="#khXBTu4XR" opacity="1" fill="#ffffff" fill-opacity="1"></use><g><use xlink:href="#khXBTu4XR" opacity="1" fill-opacity="0" stroke="#000000" stroke-width="1" stroke-opacity="0"></use></g></g><g><use xlink:href="#cCOYm1OMn" opacity="1" fill="#ffffff" fill-opacity="1"></use><g><use xlink:href="#cCOYm1OMn" opacity="1" fill-opacity="0" stroke="#000000" stroke-width="1" stroke-opacity="0"></use></g></g><g><use xlink:href="#afsKepfis" opacity="1" fill="#ffffff" fill-opacity="1"></use><g><use xlink:href="#afsKepfis" opacity="1" fill-opacity="0" stroke="#000000" stroke-width="1" stroke-opacity="0"></use></g></g><g><use xlink:href="#c122OuY19Z" opacity="1" fill="#ffffff" fill-opacity="1"></use><g><use xlink:href="#c122OuY19Z" opacity="1" fill-opacity="0" stroke="#000000" stroke-width="1" stroke-opacity="0"></use></g></g><g><use xlink:href="#b3vkkAttJY" opacity="1" fill="#ffffff" fill-opacity="1"></use><g><use xlink:href="#b3vkkAttJY" opacity="1" fill-opacity="0" stroke="#000000" stroke-width="1" stroke-opacity="0"></use></g></g><g><use xlink:href="#b4WlplxCH" opacity="1" fill="#100f0d" fill-opacity="1"></use><g><use xlink:href="#b4WlplxCH" opacity="1" fill-opacity="0" stroke="#000000" stroke-width="1" stroke-opacity="0"></use></g></g><g><use xlink:href="#a4MJMX1FYo" opacity="1" fill="#100f0d" fill-opacity="1"></use><g><use xlink:href="#a4MJMX1FYo" opacity="1" fill-opacity="0" stroke="#000000" stroke-width="1" stroke-opacity="0"></use></g></g><g><use xlink:href="#cDeYtz24V" opacity="1" fill="#100f0d" fill-opacity="1"></use><g><use xlink:href="#cDeYtz24V" opacity="1" fill-opacity="0" stroke="#000000" stroke-width="1" stroke-opacity="0"></use></g></g><g><use xlink:href="#bfIQSAQIW" opacity="1" fill="#100f0d" fill-opacity="1"></use><g><use xlink:href="#bfIQSAQIW" opacity="1" fill-opacity="0" stroke="#000000" stroke-width="1" stroke-opacity="0"></use></g></g><g><use xlink:href="#g1bMquCqdw" opacity="1" fill="#100f0d" fill-opacity="1"></use><g><use xlink:href="#g1bMquCqdw" opacity="1" fill-opacity="0" stroke="#000000" stroke-width="1" stroke-opacity="0"></use></g></g><g><use xlink:href="#aIpIvZGrh" opacity="1" fill="#100f0d" fill-opacity="1"></use><g><use xlink:href="#aIpIvZGrh" opacity="1" fill-opacity="0" stroke="#000000" stroke-width="1" stroke-opacity="0"></use></g></g><g><use xlink:href="#a3vsCyRtKC" opacity="1" fill="#100f0d" fill-opacity="1"></use><g><use xlink:href="#a3vsCyRtKC" opacity="1" fill-opacity="0" stroke="#000000" stroke-width="1" stroke-opacity="0"></use></g></g><g><use xlink:href="#e1NAMkGEWk" opacity="1" fill="#100f0d" fill-opacity="1"></use><g><use xlink:href="#e1NAMkGEWk" opacity="1" fill-opacity="0" stroke="#000000" stroke-width="1" stroke-opacity="0"></use></g></g><g><use xlink:href="#a1oMZYdwDd" opacity="1" fill="#100f0d" fill-opacity="1"></use><g><use xlink:href="#a1oMZYdwDd" opacity="1" fill-opacity="0" stroke="#000000" stroke-width="1" stroke-opacity="0"></use></g></g><g><use xlink:href="#a11TPnjVAd" opacity="1" fill="#100f0d" fill-opacity="1"></use><g><use xlink:href="#a11TPnjVAd" opacity="1" fill-opacity="0" stroke="#000000" stroke-width="1" stroke-opacity="0"></use></g></g><g><use xlink:href="#b2nhcQLkYP" opacity="1" fill="#100f0d" fill-opacity="1"></use><g><use xlink:href="#b2nhcQLkYP" opacity="1" fill-opacity="0" stroke="#000000" stroke-width="1" stroke-opacity="0"></use></g></g><g><use xlink:href="#k49OKi9mZF" opacity="1" fill="#100f0d" fill-opacity="1"></use><g><use xlink:href="#k49OKi9mZF" opacity="1" fill-opacity="0" stroke="#000000" stroke-width="1" stroke-opacity="0"></use></g></g><g><use xlink:href="#h46FPuJcMl" opacity="1" fill="#100f0d" fill-opacity="1"></use><g><use xlink:href="#h46FPuJcMl" opacity="1" fill-opacity="0" stroke="#000000" stroke-width="1" stroke-opacity="0"></use></g></g><g><use xlink:href="#gSX8KZ41P" opacity="1" fill="#100f0d" fill-opacity="1"></use><g><use xlink:href="#gSX8KZ41P" opacity="1" fill-opacity="0" stroke="#000000" stroke-width="1" stroke-opacity="0"></use></g></g><g><use xlink:href="#anwdvaIex" opacity="1" fill="#100f0d" fill-opacity="1"></use><g><use xlink:href="#anwdvaIex" opacity="1" fill-opacity="0" stroke="#000000" stroke-width="1" stroke-opacity="0"></use></g></g><g><use xlink:href="#bdLryBtZV" opacity="1" fill="#100f0d" fill-opacity="1"></use><g><use xlink:href="#bdLryBtZV" opacity="1" fill-opacity="0" stroke="#000000" stroke-width="1" stroke-opacity="0"></use></g></g><g><use xlink:href="#a8BYS9DFe" opacity="1" fill="#100f0d" fill-opacity="1"></use><g><use xlink:href="#a8BYS9DFe" opacity="1" fill-opacity="0" stroke="#000000" stroke-width="1" stroke-opacity="0"></use></g></g><g><use xlink:href="#aUC0AfhB2" opacity="1" fill="#100f0d" fill-opacity="1"></use><g><use xlink:href="#aUC0AfhB2" opacity="1" fill-opacity="0" stroke="#000000" stroke-width="1" stroke-opacity="0"></use></g></g><g><use xlink:href="#c1Xlo0s4fO" opacity="1" fill="#100f0d" fill-opacity="1"></use><g><use xlink:href="#c1Xlo0s4fO" opacity="1" fill-opacity="0" stroke="#000000" stroke-width="1" stroke-opacity="0"></use></g></g><g><use xlink:href="#b4gE3pMWYk" opacity="1" fill="#100f0d" fill-opacity="1"></use><g><use xlink:href="#b4gE3pMWYk" opacity="1" fill-opacity="0" stroke="#000000" stroke-width="1" stroke-opacity="0"></use></g></g><g><use xlink:href="#b2Fmoef4kD" opacity="1" fill="#100f0d" fill-opacity="1"></use><g><use xlink:href="#b2Fmoef4kD" opacity="1" fill-opacity="0" stroke="#000000" stroke-width="1" stroke-opacity="0"></use></g></g><g><use xlink:href="#cxuaDyFa1" opacity="1" fill="#100f0d" fill-opacity="1"></use><g><use xlink:href="#cxuaDyFa1" opacity="1" fill-opacity="0" stroke="#000000" stroke-width="1" stroke-opacity="0"></use></g></g><g><use xlink:href="#chCGwXNsO" opacity="1" fill="#100f0d" fill-opacity="1"></use><g><use xlink:href="#chCGwXNsO" opacity="1" fill-opacity="0" stroke="#000000" stroke-width="1" stroke-opacity="0"></use></g></g><g><use xlink:href="#a18VC2UoPV" opacity="1" fill="#100f0d" fill-opacity="1"></use><g><use xlink:href="#a18VC2UoPV" opacity="1" fill-opacity="0" stroke="#000000" stroke-width="1" stroke-opacity="0"></use></g></g><g><use xlink:href="#a1rpAAYld" opacity="1" fill="#100f0d" fill-opacity="1"></use><g><use xlink:href="#a1rpAAYld" opacity="1" fill-opacity="0" stroke="#000000" stroke-width="1" stroke-opacity="0"></use></g></g><g><use xlink:href="#f5AMxUl1ej" opacity="1" fill="#100f0d" fill-opacity="1"></use><g><use xlink:href="#f5AMxUl1ej" opacity="1" fill-opacity="0" stroke="#000000" stroke-width="1" stroke-opacity="0"></use></g></g><g><use xlink:href="#c2cuXM2r5" opacity="1" fill="#100f0d" fill-opacity="1"></use><g><use xlink:href="#c2cuXM2r5" opacity="1" fill-opacity="0" stroke="#000000" stroke-width="1" stroke-opacity="0"></use></g></g><g><use xlink:href="#a6ki5nDgET" opacity="1" fill="#100f0d" fill-opacity="1"></use><g><use xlink:href="#a6ki5nDgET" opacity="1" fill-opacity="0" stroke="#000000" stroke-width="1" stroke-opacity="0"></use></g></g><g><use xlink:href="#aok7c5jR" opacity="1" fill="#100f0d" fill-opacity="1"></use><g><use xlink:href="#aok7c5jR" opacity="1" fill-opacity="0" stroke="#000000" stroke-width="1" stroke-opacity="0"></use></g></g><g><use xlink:href="#b14GLVGfTY" opacity="1" fill="#100f0d" fill-opacity="1"></use><g><use xlink:href="#b14GLVGfTY" opacity="1" fill-opacity="0" stroke="#000000" stroke-width="1" stroke-opacity="0"></use></g></g><g><use xlink:href="#c4u1cACTsh" opacity="1" fill="#ffffff" fill-opacity="1"></use><g><use xlink:href="#c4u1cACTsh" opacity="1" fill-opacity="0" stroke="#000000" stroke-width="1" stroke-opacity="0"></use></g></g><g><use xlink:href="#b553HxDSXY" opacity="1" fill="#ffffff" fill-opacity="1"></use><g><use xlink:href="#b553HxDSXY" opacity="1" fill-opacity="0" stroke="#000000" stroke-width="1" stroke-opacity="0"></use></g></g><g><use xlink:href="#f3Tfjl4kzz" opacity="1" fill="#100f0d" fill-opacity="1"></use><g><use xlink:href="#f3Tfjl4kzz" opacity="1" fill-opacity="0" stroke="#000000" stroke-width="1" stroke-opacity="0"></use></g></g><g><use xlink:href="#crF5B9EiF" opacity="1" fill="#ffffff" fill-opacity="1"></use><g><use xlink:href="#crF5B9EiF" opacity="1" fill-opacity="0" stroke="#000000" stroke-width="1" stroke-opacity="0"></use></g></g><g><use xlink:href="#a1mjbtDjw" opacity="1" fill="#ffffff" fill-opacity="1"></use><g><use xlink:href="#a1mjbtDjw" opacity="1" fill-opacity="0" stroke="#000000" stroke-width="1" stroke-opacity="0"></use></g></g><g><use xlink:href="#a1Y7XAUoas" opacity="1" fill="#100f0d" fill-opacity="1"></use><g><use xlink:href="#a1Y7XAUoas" opacity="1" fill-opacity="0" stroke="#000000" stroke-width="1" stroke-opacity="0"></use></g></g><g><use xlink:href="#c16WE94mcP" opacity="1" fill="#ffffff" fill-opacity="1"></use><g><use xlink:href="#c16WE94mcP" opacity="1" fill-opacity="0" stroke="#000000" stroke-width="1" stroke-opacity="0"></use></g></g><g><use xlink:href="#b9xzTjlI7" opacity="1" fill="#100f0d" fill-opacity="1"></use><g><use xlink:href="#b9xzTjlI7" opacity="1" fill-opacity="0" stroke="#000000" stroke-width="1" stroke-opacity="0"></use></g></g><g><use xlink:href="#a6S67NeK7" opacity="1" fill="#ffffff" fill-opacity="1"></use><g><use xlink:href="#a6S67NeK7" opacity="1" fill-opacity="0" stroke="#000000" stroke-width="1" stroke-opacity="0"></use></g></g><g><use xlink:href="#e4AGWYrb8" opacity="1" fill="#ffffff" fill-opacity="1"></use><g><use xlink:href="#e4AGWYrb8" opacity="1" fill-opacity="0" stroke="#000000" stroke-width="1" stroke-opacity="0"></use></g></g><g><use xlink:href="#czJsibtVL" opacity="1" fill="#ffffff" fill-opacity="1"></use><g><use xlink:href="#czJsibtVL" opacity="1" fill-opacity="0" stroke="#000000" stroke-width="1" stroke-opacity="0"></use></g></g><g><use xlink:href="#bhl5nhcA" opacity="1" fill="#ffffff" fill-opacity="1"></use><g><use xlink:href="#bhl5nhcA" opacity="1" fill-opacity="0" stroke="#000000" stroke-width="1" stroke-opacity="0"></use></g></g></g></svg>