<?xml version="1.0" encoding="utf-8"?>
<svg id="master-artboard" viewBox="0 0 222.62181091308594 272.9814147949219" version="1.1" xmlns="http://www.w3.org/2000/svg" x="0px" y="0px" style="enable-background:new 0 0 1400 980;" width="222.62181091308594px" height="272.9814147949219px"><rect id="ee-background" x="0" y="0" width="222.62181091308594" height="272.9814147949219" style="fill: white; fill-opacity: 0; pointer-events: none;"/><defs><style id="ee-google-fonts">@import url(https://fonts.googleapis.com/css?family=Fjalla+One:400|Roboto:100,100italic,300,300italic,400,400italic,500,500italic,700,700italic,900,900italic);</style></defs>

































































































<g transform="matrix(0.9187499284744263, 0, 0, 0.9187499284744263, 90.19143724441528, -338.71807861328125)"><metadata id="metadata8"/><g transform="matrix(1.3333332538604736, 0, 0, -1.3333332538604736, -28.978646600537445, 1045.737718334139)" id="g10"><g transform="matrix(0.1000000014901161, 0, 0, 0.1000000014901161, -121.95181239069404, -15.696767931475392)" id="g12"><path id="path168" style="fill:#2c2c2e;fill-opacity:1;fill-rule:nonzero;stroke:none" d="m 1088.15,4518.34 c -18.35,18.35 -45.57,19.76 -63.93,1.41 l -79.751,-79.76 c -18.348,-18.34 -16.953,-45.57 1.406,-63.93 16.078,-16.06 40.438,-17.39 60.555,-3.44 l 46.06,-46.06 85.16,85.18 -46.04,46.06 c 13.94,20.12 12.62,44.48 -3.46,60.54"/><path id="path170" style="fill:#2c2c2e;fill-opacity:1;fill-rule:nonzero;stroke:none" d="m 1608.25,5050.11 c -137.57,0 -249.48,-102.65 -249.48,-228.84 0,-126.18 111.91,-228.83 249.48,-228.83 137.57,0 249.48,102.65 249.48,228.83 0,126.19 -111.91,228.84 -249.48,228.84 z m 0,-515.24 c -169.3,0 -307.05,128.48 -307.05,286.4 0,157.93 137.75,286.42 307.05,286.42 169.3,0 307.05,-128.49 307.05,-286.42 0,-157.92 -137.75,-286.4 -307.05,-286.4"/><path id="path172" style="fill:#2c2c2e;fill-opacity:1;fill-rule:nonzero;stroke:none" d="m 1603.46,4517.89 c -364.98,0 -661.917,-296.93 -661.917,-661.91 0,-364.98 296.937,-661.94 661.917,-661.94 364.98,0 661.91,296.96 661.91,661.94 0,364.98 -296.93,661.91 -661.91,661.91 z m 0,-1410.19 c -412.61,0 -748.272,335.68 -748.272,748.28 0,412.59 335.662,748.27 748.272,748.27 412.6,0 748.27,-335.68 748.27,-748.27 0,-412.6 -335.67,-748.28 -748.27,-748.28"/><path id="path174" style="fill:#2c2c2e;fill-opacity:1;fill-rule:nonzero;stroke:none" d="m 1640,4360 h -60 v 100 h 60 v -100"/><path id="path176" style="fill:#2c2c2e;fill-opacity:1;fill-rule:nonzero;stroke:none" d="m 1268.58,4233.96 -40.71,-40.72 -71.24,71.25 40.7,40.71 71.25,-71.24"/><path id="path178" style="fill:#2c2c2e;fill-opacity:1;fill-rule:nonzero;stroke:none" d="m 1110,3880 v -60 h -110 v 60 h 110"/><path id="path180" style="fill:#2c2c2e;fill-opacity:1;fill-rule:nonzero;stroke:none" d="m 1227.87,3521.5 40.71,-40.7 -71.25,-71.25 -40.7,40.72 71.24,71.23"/><path id="path182" style="fill:#2c2c2e;fill-opacity:1;fill-rule:nonzero;stroke:none" d="m 1580,3350 h 60 v -100 h -60 v 100"/><path id="path184" style="fill:#2c2c2e;fill-opacity:1;fill-rule:nonzero;stroke:none" d="m 1940.31,3480.8 40.71,40.7 71.25,-71.23 -40.72,-40.72 -71.24,71.25"/><path id="path186" style="fill:#2c2c2e;fill-opacity:1;fill-rule:nonzero;stroke:none" d="m 2110,3820 v 60 h 100 v -60 h -100"/><path id="path188" style="fill:#2c2c2e;fill-opacity:1;fill-rule:nonzero;stroke:none" d="m 1981.02,4193.24 -40.71,40.72 71.24,71.24 40.72,-40.71 -71.25,-71.25"/><path id="path190" style="fill:#2c2c2e;fill-opacity:1;fill-rule:nonzero;stroke:none" d="m 1710,4530 h -190 v 240 h 190 v -240"/><path id="path192" style="fill:#2c2c2e;fill-opacity:1;fill-rule:nonzero;stroke:none" d="m 1780,4744.39 c 0,-7.95 -6.45,-14.39 -14.39,-14.39 h -301.22 c -7.94,0 -14.39,6.44 -14.39,14.39 v 161.22 c 0,7.95 6.45,14.39 14.39,14.39 h 301.22 c 7.94,0 14.39,-6.44 14.39,-14.39 v -161.22"/><path id="path194" style="fill:#c22632;fill-opacity:1;fill-rule:nonzero;stroke:none" d="m 2060,3857.7 v -1.72 c 0,-123.5 -51.26,-235.04 -132.3,-315.82 L 1610,3855.98 v 450.63 c 130,0 232.34,-50.65 313.67,-132.41 0.28,-0.27 3.98,-0.41 4.11,-0.72 80.33,-81.02 132.22,-192.57 132.22,-315.78"/><path id="path196" style="fill:#2c2c2e;fill-opacity:1;fill-rule:nonzero;stroke:none" d="m 1544.93,3797.44 c -39.92,33.49 -46.39,86.62 -9.56,123.45 l 3.26,3.25 c 36.84,36.86 89.91,30.39 123.41,-9.52 74.75,-89.03 206.12,-278.08 266.32,-360.66 12.53,-17.2 -8.64,-33.3 -22.73,-22.85 -95.97,71.18 -271.68,191.61 -360.7,266.33"/></g></g></g></svg>